<?xml version="1.0" encoding="UTF-8"?>
<svg id="Layer_2" data-name="Layer 2" xmlns="http://www.w3.org/2000/svg" viewBox="0 0 1030 1030">
  <defs>
    <style>
      .cls-1 {
        stroke-width: 0px;
      }

      .cls-2 {
        fill: none;
        stroke: #231f20;
        stroke-miterlimit: 10;
        stroke-width: 30px;
      }
    </style>
  </defs>
  <g id="Layer_1-2" data-name="Layer 1">
    <g>
      <g>
        <path class="cls-1" d="m121.38,296.09c22.27,20.58,44.17,40.81,66.07,61.03,12.83,11.85,25.65,23.72,38.51,35.52,2.97,2.72,5.11,5.72,5.05,9.97-.07,4.57-2.16,7.92-6.06,10.02-3.94,2.12-7.93,1.81-11.68-.66-1.03-.68-1.98-1.52-2.89-2.36-37.29-34.46-74.59-68.91-111.85-103.4-7.79-7.21-7.75-13.26.12-20.51,37.16-34.23,74.35-68.43,111.54-102.63,5.46-5.02,12.47-5.1,17-.25,4.59,4.92,3.98,12.11-1.56,17.22-33.68,31.01-67.38,62-101.07,93-.99.91-1.95,1.86-3.18,3.03Z"/>
        <path class="cls-1" d="m318.06,203.49c-15.03-13.83-29.7-27.35-44.39-40.86-19.93-18.33-39.87-36.64-59.79-54.97-5.65-5.2-6.38-12.16-1.83-17.17,4.64-5.1,11.54-5.11,17.25.13,31.79,29.2,63.55,58.44,95.32,87.66,5.51,5.07,11.02,10.13,16.54,15.19,7.18,6.58,7.22,13.26.12,19.81-37.49,34.62-74.97,69.24-112.46,103.86-6.49,6-14.51,5.61-18.69-.89-3.24-5.04-2.26-10.98,2.6-15.48,23.28-21.5,46.56-42.99,69.85-64.49,11.73-10.83,23.44-21.67,35.47-32.79Z"/>
      </g>
      <path class="cls-1" d="m442,665.36v5.56c0,91.43,0,182.85,0,274.28,0,1.74.09,3.53-.26,5.21-1.15,5.64-6.42,9.66-11.92,9.29-5.58-.38-10.19-4.9-10.79-10.63-.1-.99-.06-1.99-.06-2.99,0-99.66,0-199.32,0-298.98,0-7.34,2.97-12.22,9.1-13.03,3.14-.41,7.01.53,9.79,2.16,34.72,20.32,69.29,40.87,103.9,61.36,18.65,11.04,37.22,22.19,55.98,33.04,5.85,3.38,8.26,7.85,8.25,14.59-.13,66.73-.08,133.46-.11,200.19,0,1.97-.08,4.02-.6,5.9-1.51,5.46-6.86,9.01-12.19,8.35-5.44-.68-9.82-5.28-10.22-10.78-.09-1.24-.04-2.49-.04-3.74,0-64.11-.03-128.22.08-192.33,0-3.17-.99-4.84-3.69-6.43-44.64-26.32-89.21-52.75-133.8-79.15-.93-.55-1.91-1.04-3.43-1.87Z"/>
      <path class="cls-1" d="m235.91,583.03c0-1.33,0-2.66,0-3.99,0-22.37-.02-44.74.01-67.1.01-7.49,4.23-12.63,10.58-13.12,6.93-.53,12.34,4.6,12.36,11.93.05,23.62.02,47.23.02,70.85,0,1.32,0,2.63,0,5.05,5.75-7.16,10.81-13.43,15.84-19.72,16.86-21.04,33.73-42.07,50.56-63.13,3.17-3.97,7.15-5.87,12.15-4.71,4.66,1.08,7.53,4.22,8.61,8.9.93,3.99-.51,7.32-2.97,10.38-19.06,23.76-38.1,47.53-57.14,71.3-8.27,10.32-16.63,20.58-24.75,31.03-1.31,1.69-2.21,4.21-2.21,6.36-.12,62.35-.12,124.71-.05,187.06,0,5.06-1.47,9.08-5.96,11.62-6.53,3.69-14.83.08-16.52-7.24-.47-2.04-.52-4.21-.52-6.32-.03-61.73,0-123.46-.12-185.19,0-2.39-.93-5.18-2.35-7.1-24.68-33.43-49.49-66.76-74.31-100.09-2.51-3.37-4.93-6.74-4.08-11.23.92-4.81,3.72-8.18,8.55-9.4,4.82-1.21,8.93.32,11.94,4.23,4.94,6.43,9.73,12.98,14.57,19.49,14.15,19.03,28.29,38.06,42.44,57.09.81,1.09,1.66,2.15,2.5,3.22.28-.06.56-.12.84-.19Z"/>
      <path class="cls-1" d="m853.77,944.25c3.72-15.81,7.21-30.6,10.69-45.39,17.68-75.2,35.38-150.4,52.98-225.62,1.3-5.56,4.12-9.42,9.78-10.44,5.41-.97,9.16,1.84,12.3,6.08,16.83,22.8,33.84,45.46,50.54,68.35,1.91,2.62,3.18,6.3,3.28,9.54.15,4.83-3.69,8.93-8.21,9.93-5.07,1.12-9.34-.34-12.52-4.63-11.59-15.64-23.21-31.27-34.82-46.9-.88-1.18-1.8-2.33-3.19-4.11-1.77,7.35-3.41,14.05-4.99,20.76-20.05,85.4-40.09,170.81-60.13,256.21-.2.85-.41,1.7-.65,2.54-1.39,4.92-5.21,8.42-10.05,8.79-5.1.39-9.02-1.82-11.36-6.35-4-7.75-7.81-15.6-11.7-23.41-10.96-21.97-21.89-43.95-32.91-65.89-2.14-4.26-2.44-8.35.17-12.41,4.89-7.57,15.63-6.97,19.92,1.26,5.07,9.73,9.82,19.61,14.72,29.43,5.23,10.46,10.47,20.92,16.14,32.25Z"/>
      <path class="cls-1" d="m658.91,431.57c-9.89,9.11-19.53,17.97-29.16,26.85-14.6,13.46-29.19,26.92-43.77,40.41-2.97,2.75-6.26,4.61-10.42,4-4.75-.69-8.13-3.4-9.45-7.98-1.34-4.65-.19-8.84,3.52-12.25,20.57-18.95,41.11-37.95,61.66-56.93,3.47-3.21,6.94-6.43,10.63-9.84-6.7-6.24-13.16-12.28-19.64-18.3-17.2-15.98-34.41-31.95-51.62-47.92-6.99-6.48-7.05-12.99-.05-19.55,22.79-21.34,45.6-42.66,68.4-63.98,1-.93,1.99-1.87,3.24-3.04-1.17-1.12-2.18-2.14-3.24-3.1-23.73-21.6-47.48-43.19-71.2-64.81-4.68-4.26-5.78-9.97-3.06-14.83,3.63-6.48,12.15-7.8,17.96-2.57,13.09,11.77,26.09,23.65,39.11,35.5,11.64,10.59,23.27,21.18,34.91,31.77.73.66,1.52,1.27,2.47,2.06.98-.87,1.91-1.67,2.8-2.5,23.26-21.75,46.53-43.49,69.76-65.27,2.96-2.77,6.18-4.68,10.36-4.14,4.75.61,8.13,3.15,9.6,7.76,1.5,4.7.36,8.9-3.25,12.3-8.46,7.96-16.96,15.88-25.44,23.81-15.05,14.07-30.1,28.14-45.15,42.22-.45.42-.84.88-1.5,1.58,6.91,6.31,13.69,12.53,20.5,18.72,17.37,15.79,34.75,31.58,52.12,47.36,6.8,6.18,6.95,13.1.23,19.31-23.01,21.28-46.07,42.51-69.11,63.76-1.37,1.26-2.73,2.52-4.26,3.94,12.14,11.27,24.12,22.39,36.1,33.52,12.17,11.3,24.37,22.57,36.48,33.94,4.22,3.96,5.04,9.22,2.56,13.99-2.33,4.48-7.07,7.06-12.23,5.73-2.73-.7-5.42-2.51-7.54-4.46-22.32-20.56-44.52-41.25-66.76-61.9-1.73-1.61-3.48-3.21-5.58-5.14Zm.05-31.36c22.39-20.65,44.45-41,66.67-61.49-22.29-20.27-44.22-40.21-66.23-60.23-22.05,20.62-43.71,40.87-65.53,61.28,21.82,20.26,43.3,40.2,65.09,60.44Z"/>
      <path class="cls-2" d="m83.44,15h436.78c273.08,0,494.78,221.7,494.78,494.78v436.78c0,37.78-30.67,68.44-68.44,68.44h-436.78c-273.08,0-494.78-221.7-494.78-494.78V83.44C15,45.67,45.67,15,83.44,15Z"/>
    </g>
  </g>
</svg>