<?xml version="1.0" encoding="UTF-8"?>
<svg id="Layer_2" data-name="Layer 2" xmlns="http://www.w3.org/2000/svg" viewBox="0 0 457.75 457.89">
  <defs>
    <style>
      .cls-1 {
        fill: #f5eada;
      }

      .cls-1, .cls-2 {
        stroke-width: 0px;
      }

      .cls-2 {
        fill: #c59036;
      }
    </style>
  </defs>
  <g id="Layer_1-2" data-name="Layer 1">
    <g>
      <path class="cls-2" d="m457.75,230.72c.2,124.65-105.94,230.36-233.38,227.1C106.71,454.8,12.16,364.57,1.49,258.41-6.1,182.85,15.06,116.99,69.87,63.72,113.77,21.05,166.93-.9,228.58.03c123.75,1.85,229.06,99.35,229.16,230.7ZM87.38,69.88c-.52.48-1.04.95-1.55,1.43-19.45,23.29-32.89,49.37-36.57,79.86-5.39,44.63,7.65,83.27,39.29,115.04,26.09,26.2,58.66,39.03,95.17,41.48,34.92,2.34,68.56-3.6,100.3-18.78,11.31-5.41,21.97-11.86,29.75-22.09,4.35-5.72,4.64-11.99,2.22-18.57-.49,6.46-3.96,11.18-8.47,15.35-6.32,5.84-13.73,10.03-21.64,13.12-45.46,17.77-91.39,18.76-137.23,2.01-69.08-25.24-104.2-93.82-83.21-162.94,4.76-15.67,12.29-30.02,21.13-43.74.48-.53.95-1.07,1.42-1.61.1-.4.39-1.09.28-1.16-.56-.35-.74.15-.89.59Zm201.63,184.64c-52.27,16.99-103.73,13.9-154.52-6.44.32.57.66.91,1.07,1.15,38.29,23.06,79.38,29.81,122.97,20.4,11.28-2.43,22.58-5.68,30.97-14.64.25-.18.49-.37.74-.55-.44-.53-.84-.28-1.22.08ZM29.64,301.75c-.2-.74-.29-2.14-1.22-1.63-1.25.69.47,1.43.55,2.25,4.39,9.67,9.13,19.16,14.89,28.09,20.89,32.4,47.99,57.56,84.4,71.65,24.48,9.47,49.84,12.15,75.93,10.04,26.68-2.16,52.43-8.11,77.25-17.98,34.81-13.85,65.84-33.71,93.04-59.5,31.22-29.6,55.21-63.36,61.48-107.26.61-4.27,1-8.57,1.51-12.86.49-4.12,1.33-8.23.44-13.31-5.67,41.15-24.55,74.46-53.05,102.83-23.05,22.94-49.91,40.37-79.18,54.02-51.65,24.09-105.51,34.66-162.29,23.76-27.14-5.21-51.68-16.49-73.45-33.68-16.39-12.93-29.54-28.62-40.29-46.42Zm7.2-167.4c-10.77,27.35-16.85,55.46-14.5,85.09,1.84,23.31,8.57,45.03,21.26,64.59,29.91,46.07,73.68,67.68,127.5,70.75,15.98.91,31.9-.24,47.75-2.75,53.01-8.39,100.18-30.07,142.34-62.82,19.41-15.08,36.63-32.39,48.48-54.35,3-5.56,2.99-5.68-3.12-6.76-40.12-7.13-73.18-27.62-102.83-54.46-11.44-10.35-21.86-21.72-32.33-33.1,8.04,32.66,29.27,55.18,57.59,73.79-41.98-5.41-82.65-12.9-123.88-4.66,12.98-1.27,25.71,1.43,38.45,2.82,17.79,1.93,35.43,5.39,52.59,10.66,12.49,3.83,25.02,7.73,35.48,16.17,12.77,10.3,14.27,23.47,4.26,36.63-7.72,10.15-17.82,17.45-28.67,23.66-31.67,18.13-65.59,28.98-102.19,31.55-27.4,1.92-54.08-.53-79.87-10.28-55.79-21.09-93.86-74.42-93.76-135.97.03-16.93,2.44-33.43,6.24-49.82,1.09-.97,1.12-2.06.35-3.4-.41.98-.77,1.82-1.13,2.67Zm388.65,39.39c.45-27.61-7.95-51.74-22.62-73.79-17.18-25.83-40.2-45.14-67.1-60.41-29.52-16.76-61.12-25.67-94.84-26.33-26.9-.52-53.13,4.02-78.04,14.78-27.36,11.81-50.06,29.38-66.49,54.44-16.27,24.81-25.42,51.78-22.71,81.86,1.11,12.39,3.57,24.54,8.4,36.14,1.11,2.67,2.55,3.37,5.28,3.15,10.27-.85,20.55-1.26,30.82-2.36,27.86-2.98,53.61-11.71,77.59-26.1,23.71-14.23,44.52-31.97,63.71-51.75,6.15-6.33,11.93-6.44,17.49-.23,17.05,19.07,36.29,35.59,57.27,50.2,24.96,17.38,52.25,27.11,82.97,26.77,5.1-.06,6.79-1.82,7.09-6.23.47-6.97,1.45-13.92,1.19-20.12Zm-228.52,265.94c112.35,17.89,220.32-63.27,242.12-171.64-19.96,51.79-52.53,92.32-96.37,123.7-43.92,31.44-92.55,49.16-145.75,47.94Z"/>
      <path class="cls-1" d="m87.38,69.88c.16-.43.34-.94.89-.59.11.07-.18.76-.28,1.16-.22-.18-.42-.37-.61-.58Z"/>
      <path class="cls-1" d="m289,254.52c.39-.36.78-.61,1.22-.08-.25.18-.49.37-.74.55-.16-.15-.32-.31-.48-.47Z"/>
      <path class="cls-2" d="m180.05,61.77c19.74-.42,36.08,15.56,36.58,35.75.5,20.54-15.57,37.51-35.21,38.55-21.24,1.13-38.33-15.58-38.92-36.12-.61-21.17,15.73-37.72,37.55-38.18Z"/>
    </g>
  </g>
</svg>