<?xml version="1.0" encoding="UTF-8"?>
<svg id="Layer_2" data-name="Layer 2" xmlns="http://www.w3.org/2000/svg" viewBox="0 0 2030 2030">
  <defs>
    <style>
      .cls-1 {
        fill: #231f20;
        stroke: #231f20;
        stroke-miterlimit: 10;
        stroke-width: 10px;
      }
    </style>
  </defs>
  <g id="Layer_1-2" data-name="Layer 1">
    <g>
      <path class="cls-1" d="m1275,1015c0,1.1-.01,2.2-.03,3.3-.01,1.75-.05,3.48-.11,5.19-.03.9-.07,1.79-.11,2.67v.39s-20-.32-20-.32v-.34c-.05-3.86-.08-7.39-.08-10.78s.03-7.04.08-10.98v-.24l19.99-.34v.27s.01.09.01.09c.04.88.08,1.77.11,2.67.06,1.7.1,3.42.11,5.15.02,1.09.03,2.18.03,3.27Z"/>
      <path class="cls-1" d="m777.93,976.4l-1.1,8.81-1.38,11.18-1.01-.25c.15,6.29.23,12.63.23,18.97,0,10.7-.23,21.49-.67,32.07-.1,2.49-.22,4.98-.35,7.47l-4.34,1.08c-.93.23-1.86.47-2.78.71l-13.08,3.4.56-13.32c.01-.06.01-.11.01-.17h0s.31-7.4.31-7.4l2.66-56.2c.46-3.76,1.01-7.5,1.65-11.22l7.86,2.03c.93.24,1.87.48,2.81.71l8.62,2.13Z"/>
      <path class="cls-1" d="m996.47,775.71c-.81.06-1.62.13-2.43.2-.99.08-1.97.17-2.95.27-1.97.19-3.93.41-5.88.65l-8.74,1.09-2.46-9.66c-.11-.43-.22-.86-.33-1.29l-2.16-8.33c3.72-.64,7.47-1.19,11.23-1.65l8.74-1.08,2.18,8.53c.94,3.66,1.85,7.33,2.74,11.01.02.08.05.17.06.26Z"/>
      <path class="cls-1" d="m1058.47,758.64l-4.93,19.28-8.75-1.09c-3.73-.46-7.49-.83-11.26-1.12.01-.09.04-.18.06-.26.89-3.68,1.8-7.35,2.74-11.01l2.18-8.53,8.74,1.08c3.76.46,7.5,1.01,11.22,1.65Z"/>
      <path class="cls-1" d="m1275,1015c0,1.1-.01,2.2-.03,3.3-.01,1.75-.05,3.48-.11,5.19-.03.9-.07,1.79-.11,2.67v.39s-20-.32-20-.32v-.34c-.05-3.86-.08-7.39-.08-10.78s.03-7.04.08-10.98v-.24l19.99-.34v.27s.01.09.01.09c.04.88.08,1.77.11,2.67.06,1.7.1,3.42.11,5.15.02,1.09.03,2.18.03,3.27Z"/>
      <path class="cls-1" d="m1275.87,1059.61l-20.19-5.15h-.01c-.12-2.49-.24-4.98-.34-7.46-.28-6.87-.48-13.84-.58-20.73v-.58s20,.28,20,.28v.34c.02,1.57.05,3.14.09,4.71.03,1.68.08,3.37.13,5.06.09,3.38.2,6.75.34,10.1l.56,13.43Z"/>
      <path class="cls-1" d="m1274.75,1003.82v.26l-19.99.28v-.23s-.01-.08-.01-.08c-.18-3.99-.45-8.02-.84-12.04-.14-1.47-.29-2.93-.46-4.4-.09-.79-.18-1.59-.28-2.39-.01-.11-.03-.21-.04-.32l-1.06-8.45,19.29-4.92c.64,3.72,1.19,7.46,1.65,11.22.86,6.89,1.44,13.88,1.73,20.77v.3Z"/>
      <path class="cls-1" d="m1047.25,756.99l-8.74-1.08-2.18,8.53c-.94,3.66-1.85,7.33-2.74,11.01-.02.08-.05.17-.06.26,3.77.29,7.53.66,11.26,1.12l8.75,1.09,4.93-19.28c-3.72-.64-7.46-1.19-11.22-1.65Zm-50.84,18.46c-.89-3.68-1.8-7.35-2.74-11.01l-2.18-8.53-8.74,1.08c-3.76.46-7.51,1.01-11.23,1.65l2.16,8.33c.11.43.22.86.33,1.29l2.46,9.66,8.74-1.09c1.95-.24,3.91-.46,5.88-.65.98-.1,1.96-.19,2.95-.27.81-.07,1.62-.14,2.43-.2,0-.09-.04-.18-.06-.26Zm278.9,270.73c-.14-3.35-.25-6.72-.34-10.1-.05-1.69-.1-3.38-.13-5.06-.04-1.57-.07-3.14-.09-4.71v-.15c.04-.88.08-1.77.11-2.67.06-1.71.1-3.44.11-5.19.02-1.1.03-2.2.03-3.3s-.01-2.18-.03-3.27c-.01-1.73-.05-3.45-.11-5.15-.03-.9-.07-1.79-.11-2.67v-.36s-.01-.03-.01-.03c-.29-6.89-.87-13.88-1.73-20.77-.46-3.76-1.01-7.5-1.65-11.22l-19.29,4.92,1.06,8.45c.01.11.03.21.04.32.1.8.19,1.6.28,2.39.17,1.47.32,2.93.46,4.4.39,4.02.66,8.05.84,12.04v.08c-.05,3.94-.08,7.54-.08,10.98s.03,6.92.08,10.78v.38c.1,6.89.3,13.86.58,20.73.1,2.48.22,4.97.34,7.45h0s.01.01.01.01l20.19,5.15-.56-13.43Zm-506-71.91c-.94-.23-1.88-.47-2.81-.71l-7.86-2.03c-.64,3.72-1.19,7.46-1.65,11.22l-2.66,56.2-.31,7.39h0c0,.07,0,.12-.01.18l-.56,13.32,13.08-3.4c.92-.24,1.85-.48,2.78-.71l4.34-1.08c.13-2.49.25-4.98.35-7.47.44-10.58.67-21.37.67-32.07,0-6.34-.08-12.68-.23-18.97l1.01.25,1.38-11.18,1.1-8.81-8.62-2.13Z"/>
      <path class="cls-1" d="m1047.25,756.99l-8.74-1.08-2.18,8.53c-.94,3.66-1.85,7.33-2.74,11.01-.02.08-.05.17-.06.26,3.77.29,7.53.66,11.26,1.12l8.75,1.09,4.93-19.28c-3.72-.64-7.46-1.19-11.22-1.65Zm-50.84,18.46c-.89-3.68-1.8-7.35-2.74-11.01l-2.18-8.53-8.74,1.08c-3.76.46-7.51,1.01-11.23,1.65l2.16,8.33c.11.43.22.86.33,1.29l2.46,9.66,8.74-1.09c1.95-.24,3.91-.46,5.88-.65.98-.1,1.96-.19,2.95-.27.81-.07,1.62-.14,2.43-.2,0-.09-.04-.18-.06-.26Zm278.9,270.73c-.14-3.35-.25-6.72-.34-10.1-.05-1.69-.1-3.38-.13-5.06-.04-1.57-.07-3.14-.09-4.71v-.15c.04-.88.08-1.77.11-2.67.06-1.71.1-3.44.11-5.19.02-1.1.03-2.2.03-3.3s-.01-2.18-.03-3.27c-.01-1.73-.05-3.45-.11-5.15-.03-.9-.07-1.79-.11-2.67v-.36s-.01-.03-.01-.03c-.29-6.89-.87-13.88-1.73-20.77-.46-3.76-1.01-7.5-1.65-11.22l-19.29,4.92,1.06,8.45c.01.11.03.21.04.32.1.8.19,1.6.28,2.39.17,1.47.32,2.93.46,4.4.39,4.02.66,8.05.84,12.04v.08c-.05,3.94-.08,7.54-.08,10.98s.03,6.92.08,10.78v.38c.1,6.89.3,13.86.58,20.73.1,2.48.22,4.97.34,7.45h0s.01.01.01.01l20.19,5.15-.56-13.43Zm-506-71.91c-.94-.23-1.88-.47-2.81-.71l-7.86-2.03c-.64,3.72-1.19,7.46-1.65,11.22l-2.66,56.2-.31,7.39h0c0,.07,0,.12-.01.18l-.56,13.32,13.08-3.4c.92-.24,1.85-.48,2.78-.71l4.34-1.08c.13-2.49.25-4.98.35-7.47.44-10.58.67-21.37.67-32.07,0-6.34-.08-12.68-.23-18.97l1.01.25,1.38-11.18,1.1-8.81-8.62-2.13Z"/>
      <path class="cls-1" d="m777.93,976.4l-1.1,8.81-1.38,11.18-1.01-.25c.15,6.29.23,12.63.23,18.97,0,10.7-.23,21.49-.67,32.07-.1,2.49-.22,4.98-.35,7.47l-4.34,1.08c-.93.23-1.86.47-2.78.71l-13.08,3.4.56-13.32c.01-.06.01-.11.01-.17h0s.31-7.4.31-7.4l2.66-56.2c.46-3.76,1.01-7.5,1.65-11.22l7.86,2.03c.93.24,1.87.48,2.81.71l8.62,2.13Z"/>
      <path class="cls-1" d="m525,1015c0-41.45,5.18-82.63,15.4-122.4l1.93-7.49-6.76-3.75c-3.71-2.05-7.43-4.14-11.14-6.27-8.75-5-17.5-10.17-26.11-15.46-60.77-37.25-117.68-81.22-169.21-130.73l-2.77-2.69c-59.97-58.06-112.44-123.51-155.98-194.53-4.41-7.19-8.75-14.49-12.91-21.68l-8.65-14.96-8.66,14.94c-2.93,5.05-5.87,10.25-8.99,15.89-41.71,75.19-73.61,155.46-94.82,238.57-20.79,81.4-31.33,165.7-31.33,250.56s10.54,169.16,31.33,250.56c21.21,83.11,53.11,163.38,94.81,238.57,3.13,5.64,6.07,10.84,9,15.88l8.66,14.95,8.65-14.96c4.16-7.19,8.5-14.49,12.92-21.68,43.53-71.01,95.98-136.44,155.91-194.47,52.25-50.63,110.13-95.54,172.03-133.48,8.62-5.29,17.37-10.47,26.13-15.46,3.71-2.13,7.43-4.22,11.13-6.27l6.76-3.75-1.93-7.49c-10.22-39.77-15.4-80.95-15.4-122.4Zm-37.14,138.31c-63.15,38.71-122.2,84.53-175.5,136.18-61.12,59.19-114.63,125.93-159.05,198.37-1.45,2.38-2.91,4.77-4.35,7.16-.11-.19-.21-.39-.33-.59-40.87-73.69-72.13-152.36-92.92-233.81-20.38-79.79-30.71-162.43-30.71-245.62s10.33-165.83,30.71-245.62c20.79-81.45,52.05-160.12,92.93-233.81.11-.2.22-.4.32-.59,1.44,2.39,2.9,4.78,4.35,7.16,43.67,71.24,96.17,136.99,156.07,195.47l3.04,2.97c53.31,51.63,112.33,97.42,175.45,136.11,10.32,6.32,20.82,12.5,31.3,18.42-1.47,6.11-2.83,12.24-4.07,18.4-.24,1.23-.49,2.46-.73,3.7-.24,1.23-.47,2.46-.7,3.7-.23,1.24-.46,2.47-.68,3.71-.23,1.24-.44,2.48-.65,3.72-.42,2.48-.83,4.96-1.22,7.45-.58,3.73-1.12,7.47-1.62,11.22-.31,2.36-.61,4.73-.89,7.1-.32,2.64-.61,5.28-.88,7.92-.09.85-.18,1.7-.26,2.55-.18,1.77-.34,3.54-.5,5.31-.08,1.01-.17,2.01-.25,3.02-.02.21-.04.42-.06.62-.06.85-.13,1.7-.19,2.55-.29,3.8-.53,7.6-.74,11.4-.06,1.1-.11,2.2-.16,3.3-.04.8-.08,1.6-.11,2.4-.04.95-.08,1.9-.11,2.85-.06,1.58-.11,3.16-.15,4.74-.03.94-.05,1.89-.07,2.84-.03,1.26-.06,2.53-.07,3.8-.01.49-.02.98-.02,1.47-.03,2.04-.04,4.08-.04,6.12s.01,4.08.04,6.12c0,.49.01.98.02,1.47.01,1.27.04,2.54.07,3.8.02.95.04,1.9.07,2.84.04,1.58.09,3.16.15,4.74.03.95.07,1.9.11,2.85.03.8.07,1.6.11,2.4.05,1.1.11,2.2.16,3.3.16,2.95.34,5.89.55,8.84.1,1.32.19,2.64.3,3.96.1,1.33.21,2.67.33,4.01.11,1.34.23,2.67.36,4.01.06.69.13,1.38.2,2.08.08.85.17,1.7.26,2.55.43,4.19.91,8.38,1.46,12.57.11.93.23,1.86.36,2.79.04.31.08.63.13.95.45,3.32.93,6.63,1.44,9.93.2,1.24.4,2.49.6,3.73.63,3.89,1.31,7.78,2.05,11.66.15.84.31,1.68.47,2.52.19.96.38,1.93.57,2.9.26,1.31.52,2.62.8,3.93.2.98.41,1.97.62,2.95.66,3.11,1.35,6.22,2.07,9.32.29,1.23.58,2.45.87,3.67-10.48,5.92-20.98,12.1-31.31,18.42Z"/>
      <path class="cls-1" d="m1275,1015c0,1.1-.01,2.2-.03,3.3-.01,1.75-.05,3.48-.11,5.19-.03.9-.07,1.79-.11,2.67v.39s-20-.32-20-.32v-.34c-.05-3.86-.08-7.39-.08-10.78s.03-7.04.08-10.98v-.24l19.99-.34v.27s.01.09.01.09c.04.88.08,1.77.11,2.67.06,1.7.1,3.42.11,5.15.02,1.09.03,2.18.03,3.27Z"/>
      <path class="cls-1" d="m1275.87,1059.61l-20.19-5.15h-.01c-.12-2.49-.24-4.98-.34-7.46-.28-6.87-.48-13.84-.58-20.73v-.58s20,.28,20,.28v.34c.02,1.57.05,3.14.09,4.71.03,1.68.08,3.37.13,5.06.09,3.38.2,6.75.34,10.1l.56,13.43Z"/>
      <path class="cls-1" d="m1274.75,1003.82v.26l-19.99.28v-.23s-.01-.08-.01-.08c-.18-3.99-.45-8.02-.84-12.04-.14-1.47-.29-2.93-.46-4.4-.09-.79-.18-1.59-.28-2.39-.01-.11-.03-.21-.04-.32l-1.06-8.45,19.29-4.92c.64,3.72,1.19,7.46,1.65,11.22.86,6.89,1.44,13.88,1.73,20.77v.3Z"/>
      <path class="cls-1" d="m1275,1015c0,1.1-.01,2.2-.03,3.3-.01,1.75-.05,3.48-.11,5.19-.03.9-.07,1.79-.11,2.67v.39s-20-.32-20-.32v-.34c-.05-3.86-.08-7.39-.08-10.78s.03-7.04.08-10.98v-.24l19.99-.34v.27s.01.09.01.09c.04.88.08,1.77.11,2.67.06,1.7.1,3.42.11,5.15.02,1.09.03,2.18.03,3.27Z"/>
      <path class="cls-1" d="m1993.67,764.44c-21.21-83.12-53.11-163.38-94.81-238.57-3.16-5.69-6.1-10.89-9-15.89l-8.66-14.94-8.65,14.96c-4.15,7.18-8.49,14.47-12.92,21.68-43.65,71.22-96.29,136.82-156.44,194.99-52.11,50.41-109.81,95.15-171.5,132.96-8.62,5.29-17.37,10.47-26.13,15.47-3.71,2.12-7.42,4.21-11.13,6.26l-6.76,3.75,1.92,7.49c10.23,39.77,15.41,80.95,15.41,122.4,0,25.91-2.02,51.71-6.04,77.13-.4,2.54-.82,5.08-1.26,7.61-.22,1.27-.45,2.53-.68,3.8-.46,2.53-.94,5.05-1.44,7.57-.44,2.21-.89,4.41-1.36,6.61-.35,1.65-.71,3.3-1.08,4.94-1.11,4.94-2.29,9.85-3.55,14.74l-.51,2-1.41,5.49,6.76,3.75c3.71,2.05,7.43,4.14,11.14,6.27,8.75,5,17.5,10.17,26.11,15.46,61.73,37.83,119.45,82.59,171.58,133.03,60.13,58.15,112.74,123.73,156.37,194.92,4.43,7.21,8.77,14.5,12.92,21.68l8.65,14.96,8.66-14.94c2.9-5,5.84-10.2,9-15.89,41.7-75.19,73.6-155.45,94.81-238.57,20.79-81.4,31.33-165.7,31.33-250.56s-10.54-169.16-31.33-250.56Zm-19.38,496.18c-20.79,81.45-52.05,160.12-92.93,233.81-.11.2-.22.4-.32.59-1.44-2.39-2.89-4.78-4.35-7.16-44.52-72.62-98.19-139.52-159.53-198.84-53.17-51.45-112.06-97.11-175.03-135.71-10.32-6.32-20.82-12.5-31.3-18.42,1.47-6.11,2.83-12.24,4.07-18.4.24-1.23.49-2.46.73-3.7.24-1.23.47-2.46.7-3.7.23-1.24.46-2.47.68-3.71.23-1.24.44-2.48.65-3.72.42-2.48.83-4.96,1.22-7.45.58-3.73,1.12-7.47,1.62-11.22.32-2.36.62-4.73.89-7.1.32-2.64.61-5.28.88-7.92.09-.85.18-1.7.26-2.55.18-1.77.34-3.54.5-5.31.08-1.01.17-2.01.25-3.02.02-.21.04-.42.06-.62.06-.85.13-1.7.19-2.55.29-3.8.53-7.6.74-11.4.06-1.1.11-2.2.16-3.3.04-.8.08-1.6.11-2.4.04-.95.08-1.9.11-2.85.06-1.58.11-3.16.15-4.74.03-.94.05-1.89.07-2.84.03-1.26.06-2.53.07-3.8.01-.49.02-.98.02-1.47.03-2.04.04-4.08.04-6.12s-.01-4.08-.04-6.12c0-.49-.01-.98-.02-1.47-.01-1.27-.04-2.53-.07-3.8-.02-.95-.04-1.9-.07-2.84-.04-1.58-.09-3.16-.15-4.74-.03-.95-.07-1.9-.11-2.85-.03-.8-.07-1.6-.11-2.4-.05-1.1-.11-2.2-.16-3.3-.16-2.95-.34-5.89-.55-8.84-.1-1.32-.19-2.64-.3-3.96-.1-1.33-.21-2.67-.33-4.01-.11-1.34-.23-2.67-.36-4.01-.06-.69-.13-1.38-.2-2.08-.08-.85-.17-1.7-.26-2.55-.43-4.19-.91-8.38-1.46-12.57-.11-.93-.23-1.86-.36-2.79-.04-.31-.08-.63-.13-.95-.45-3.32-.93-6.63-1.44-9.93-.2-1.24-.4-2.49-.6-3.73-.63-3.89-1.31-7.78-2.05-11.66-.15-.84-.31-1.68-.47-2.52-.19-.96-.38-1.93-.57-2.9-.26-1.31-.52-2.62-.8-3.93-.2-.98-.41-1.97-.62-2.95-.66-3.11-1.35-6.22-2.07-9.32-.29-1.23-.58-2.45-.87-3.67,10.48-5.92,20.98-12.1,31.31-18.42,62.93-38.58,121.8-84.22,174.95-135.64,61.37-59.34,115.06-126.26,159.6-198.91,1.45-2.38,2.91-4.77,4.35-7.16.11.19.21.39.33.59,40.87,73.69,72.13,152.36,92.92,233.81,20.38,79.79,30.71,162.43,30.71,245.62s-10.33,165.83-30.71,245.62Z"/>
      <path class="cls-1" d="m1271.09,969.95c.1.52.19,1.05.27,1.58h.01c-.09-.53-.18-1.06-.28-1.58Zm3.88,41.78c-.01-1.73-.05-3.45-.11-5.15-.03-.9-.07-1.79-.11-2.67v.24c-.05,3.95-.08,7.54-.08,10.96s.03,6.94.08,10.84v.21c.04-.88.08-1.77.11-2.67.06-1.71.1-3.44.11-5.19.02-1.1.03-2.2.03-3.3s-.01-2.18-.03-3.27Zm-216.49-253.1h-.01c.24.05.49.09.73.13-.24-.05-.48-.09-.72-.13Zm-89.02.36c.68-.12,1.37-.24,2.06-.35h0c-.69.11-1.38.23-2.06.35Zm-210.83,212.54h.01c.02-.11.03-.22.05-.33-.02.11-.04.22-.06.33Zm516.34,40.2c-.01-1.73-.05-3.45-.11-5.15-.03-.9-.07-1.79-.11-2.67v.24c-.05,3.95-.08,7.54-.08,10.96s.03,6.94.08,10.84v.21c.04-.88.08-1.77.11-2.67.06-1.71.1-3.44.11-5.19.02-1.1.03-2.2.03-3.3s-.01-2.18-.03-3.27Zm-3.88-41.78c.1.52.19,1.05.27,1.58h.01c-.09-.53-.18-1.06-.28-1.58Zm-212.61-211.32h-.01c.24.05.49.09.73.13-.24-.05-.48-.09-.72-.13Zm-89.02.36c.68-.12,1.37-.24,2.06-.35h0c-.69.11-1.38.23-2.06.35Zm-210.83,212.54h.01c.02-.11.03-.22.05-.33-.02.11-.04.22-.06.33Zm516.34,40.2c-.01-1.73-.05-3.45-.11-5.15-.03-.9-.07-1.79-.11-2.67v.24c-.05,3.95-.08,7.54-.08,10.96s.03,6.94.08,10.84v.21c.04-.88.08-1.77.11-2.67.06-1.71.1-3.44.11-5.19.02-1.1.03-2.2.03-3.3s-.01-2.18-.03-3.27Zm-3.88-41.78c.1.52.19,1.05.27,1.58h.01c-.09-.53-.18-1.06-.28-1.58Zm-212.61-211.32h-.01c.24.05.49.09.73.13-.24-.05-.48-.09-.72-.13Zm-89.02.36c.68-.12,1.37-.24,2.06-.35h0c-.69.11-1.38.23-2.06.35Zm-210.83,212.54h.01c.02-.11.03-.22.05-.33-.02.11-.04.22-.06.33Zm766.33,37.35c0-.49-.01-.98-.02-1.47-.01-1.27-.04-2.53-.07-3.8-.02-.95-.04-1.9-.07-2.84-.04-1.58-.09-3.16-.15-4.74-.03-.95-.07-1.9-.11-2.85-.03-.8-.07-1.6-.11-2.4-.05-1.1-.11-2.2-.16-3.3-.16-2.95-.34-5.89-.55-8.84-.1-1.32-.19-2.64-.3-3.96-.1-1.33-.21-2.67-.33-4.01-.11-1.34-.23-2.67-.36-4.01-.06-.69-.13-1.38-.2-2.08-.08-.85-.17-1.7-.26-2.55-.43-4.19-.91-8.38-1.46-12.57-.11-.93-.23-1.86-.36-2.79-.04-.31-.08-.63-.13-.95-.44-3.31-.93-6.62-1.44-9.93-.2-1.24-.4-2.49-.6-3.73-.63-3.89-1.31-7.78-2.05-11.66-.15-.84-.31-1.68-.47-2.52-.19-.96-.38-1.93-.57-2.9-.26-1.31-.52-2.62-.8-3.93-.2-.98-.41-1.97-.62-2.95-.66-3.11-1.35-6.22-2.07-9.32-.88-3.73-1.79-7.45-2.74-11.16-1.08-4.19-2.21-8.36-3.4-12.52-22.35-78.47-63.73-151.08-120.17-210.67-4.71-4.98-9.54-9.88-14.41-14.62-1.88-1.83-3.76-3.63-5.64-5.41-3.09-2.92-6.21-5.8-9.36-8.64-1.03-.93-2.06-1.85-3.1-2.76-.83-.74-1.66-1.47-2.5-2.2-3.6-3.15-7.24-6.24-10.93-9.28-.93-.77-1.87-1.54-2.81-2.3-1.03-.84-2.06-1.67-3.1-2.51-.85-.68-1.71-1.36-2.57-2.03-6.71-5.31-13.56-10.44-20.53-15.39-.91-.66-1.82-1.3-2.74-1.94-.99-.7-1.98-1.39-2.97-2.07-3.98-2.75-7.99-5.44-12.04-8.07-1.01-.66-2.03-1.32-3.04-1.97-3.09-1.97-6.2-3.91-9.32-5.81-.89-.55-1.79-1.09-2.68-1.63-7.34-4.42-14.79-8.65-22.34-12.69-.82-.44-1.64-.88-2.46-1.31-1.34-.71-2.69-1.41-4.03-2.11-1.04-.54-2.08-1.07-3.13-1.6-1.2-.61-2.4-1.22-3.61-1.82-.95-.47-1.91-.95-2.86-1.41-4.33-2.13-8.69-4.19-13.08-6.19-1.1-.5-2.19-1-3.29-1.49-.98-.44-1.95-.87-2.93-1.3-1.23-.54-2.46-1.08-3.7-1.61-1.07-.46-2.13-.91-3.21-1.37-.08-.03-.17-.07-.26-.11-1.06-.44-2.13-.89-3.19-1.33-1.12-.46-2.23-.92-3.35-1.37-1.2-.49-2.4-.97-3.6-1.45-1.04-.41-2.08-.82-3.12-1.22-1.58-.61-3.15-1.22-4.73-1.81-.84-.32-1.68-.64-2.53-.95-.99-.37-1.99-.73-2.98-1.1-1.11-.4-2.21-.8-3.32-1.19-.71-.25-1.41-.5-2.11-.75-.95-.34-1.9-.67-2.85-.99-.63-.22-1.25-.43-1.88-.64-1.07-.37-2.15-.73-3.24-1.09-1.53-.51-3.06-1.02-4.6-1.51-.83-.27-1.65-.53-2.47-.79-1.15-.36-2.3-.72-3.46-1.08-2.3-.71-4.61-1.41-6.93-2.08-.92-.27-1.85-.54-2.77-.81-.24-.06-.47-.13-.71-.2-4.16-1.19-8.34-2.32-12.53-3.4-2.49-.64-4.98-1.26-7.48-1.86-39.07-9.41-79.37-14.17-119.9-14.17s-80.82,4.76-119.89,14.17c-2.5.6-5,1.22-7.49,1.86-4.19,1.08-8.37,2.21-12.53,3.4-.32.09-.64.18-.96.28-.84.24-1.69.48-2.53.73-2.32.68-4.64,1.37-6.95,2.09-.87.26-1.73.53-2.59.81-1.45.45-2.89.91-4.33,1.38-1.06.34-2.13.69-3.19,1.05-.64.21-1.28.42-1.93.64-1.12.37-2.25.76-3.37,1.15-.61.2-1.21.42-1.83.63-1.08.37-2.17.76-3.25,1.14-2.65.95-5.29,1.91-7.93,2.9-1.95.73-3.89,1.47-5.83,2.23-1.38.54-2.76,1.08-4.14,1.63-1.2.48-2.4.96-3.6,1.45-8.7,3.56-17.3,7.35-25.8,11.38-1.21.57-2.42,1.15-3.63,1.74-.88.43-1.77.86-2.65,1.29-1.09.54-2.17,1.07-3.25,1.61-1.08.54-2.16,1.09-3.24,1.64-2.35,1.19-4.69,2.41-7.03,3.65-1.94,1.02-3.87,2.06-5.8,3.11-1.06.58-2.12,1.16-3.18,1.75-2.11,1.17-4.22,2.36-6.32,3.56-3.09,1.76-6.16,3.57-9.21,5.41-.13.08-.25.15-.38.23-2,1.21-4,2.43-5.98,3.66-1.29.8-2.57,1.6-3.85,2.41-1.92,1.22-3.82,2.44-5.73,3.68-1.9,1.24-3.79,2.5-5.67,3.76-2.01,1.35-4.01,2.72-6,4.09-1,.69-1.99,1.39-2.98,2.08-1.99,1.39-3.96,2.8-5.92,4.22-1.96,1.43-3.92,2.86-5.86,4.31-2.92,2.17-5.81,4.37-8.68,6.62-.96.74-1.91,1.49-2.86,2.25-.95.75-1.9,1.51-2.85,2.27-.94.76-1.89,1.52-2.83,2.29-2.82,2.3-5.62,4.63-8.4,6.99-.92.79-1.84,1.58-2.76,2.37-.87.75-1.73,1.5-2.59,2.25-.74.64-1.47,1.29-2.2,1.94-1.15,1.01-2.29,2.03-3.42,3.05-3.15,2.84-6.27,5.72-9.36,8.65-1.89,1.78-3.77,3.59-5.64,5.42-4.82,4.71-9.58,9.55-14.21,14.46-56.32,59.54-97.62,132.05-119.95,210.41-1.19,4.16-2.32,8.34-3.4,12.53-.64,2.49-1.26,4.99-1.86,7.49-1.47,6.11-2.83,12.24-4.07,18.4-.24,1.23-.49,2.46-.73,3.7-.24,1.23-.47,2.46-.7,3.7-.23,1.24-.46,2.47-.68,3.71-.23,1.24-.44,2.48-.65,3.72-.42,2.48-.83,4.96-1.22,7.45-.59,3.74-1.13,7.48-1.62,11.22-.31,2.36-.61,4.73-.89,7.1-.32,2.64-.61,5.28-.88,7.92-.09.85-.18,1.7-.26,2.55-.18,1.77-.34,3.54-.5,5.31-.08,1.01-.17,2.01-.25,3.02-.02.21-.04.42-.06.62-.06.85-.13,1.7-.19,2.55-.29,3.8-.53,7.6-.74,11.4-.06,1.1-.11,2.2-.16,3.3-.04.8-.08,1.6-.11,2.4-.04.95-.08,1.9-.11,2.85-.06,1.58-.11,3.16-.15,4.74-.03.94-.05,1.89-.07,2.84-.03,1.26-.06,2.53-.07,3.8-.01.49-.02.98-.02,1.47-.03,2.04-.04,4.08-.04,6.12s.01,4.08.04,6.12c0,.49.01.98.02,1.47.01,1.27.04,2.54.07,3.8.02.95.04,1.9.07,2.84.04,1.58.09,3.16.15,4.74.03.95.07,1.9.11,2.85.03.8.07,1.6.11,2.4.05,1.1.11,2.2.16,3.3.16,2.95.34,5.89.55,8.84.1,1.32.19,2.64.3,3.96.1,1.33.21,2.67.33,4.01.11,1.34.23,2.67.36,4.01.06.69.13,1.38.2,2.08.08.85.17,1.7.26,2.55.43,4.19.91,8.38,1.46,12.57.11.93.23,1.86.36,2.79.04.31.08.63.13.95.44,3.31.93,6.62,1.44,9.93.2,1.24.4,2.49.6,3.73.63,3.89,1.31,7.78,2.05,11.66.15.84.31,1.68.47,2.52.19.96.38,1.93.57,2.9.26,1.31.52,2.62.8,3.93.2.98.41,1.97.62,2.95.66,3.11,1.35,6.22,2.07,9.32.88,3.73,1.79,7.45,2.74,11.16,1.08,4.19,2.21,8.37,3.4,12.53,22.35,78.43,63.7,151.01,120.07,210.55,4.63,4.91,9.37,9.73,14.17,14.4,1.87,1.84,3.75,3.64,5.63,5.42l9.28,8.77.09.08,6.25-11.28c7.43-13.42,14.46-27.07,20.89-40.57.69-1.45,1.38-2.9,2.06-4.35.68-1.45,1.36-2.9,2.03-4.36,1.94-4.19,3.84-8.39,5.69-12.6.35-.8.71-1.6,1.05-2.4.37-.84.74-1.68,1.1-2.53,2.13-4.91,4.2-9.84,6.21-14.78.39-.96.78-1.93,1.17-2.9.6-1.48,1.19-2.96,1.77-4.44.56-1.4,1.11-2.8,1.65-4.2,1.32-3.38,2.6-6.77,3.86-10.17.44-1.16.87-2.32,1.29-3.49.55-1.49,1.09-2.99,1.63-4.48.51-1.43,1.02-2.85,1.52-4.28.63-1.78,1.25-3.55,1.86-5.33.45-1.3.89-2.6,1.33-3.91.51-1.5,1.01-3.01,1.51-4.52s.99-3.02,1.48-4.53c.49-1.51.98-3.02,1.45-4.54.39-1.22.77-2.44,1.15-3.66.16-.5.32-1,.47-1.49.4-1.31.8-2.63,1.2-3.95.39-1.28.78-2.57,1.16-3.86.24-.8.48-1.6.71-2.4.73-2.48,1.44-4.96,2.14-7.45,1.3-4.58,2.54-9.17,3.75-13.78.4-1.54.8-3.07,1.19-4.61.39-1.53.78-3.07,1.16-4.62.38-1.54.76-3.08,1.13-4.63,1.87-7.72,3.61-15.46,5.22-23.24.3-1.43.59-2.86.88-4.3.96-4.73,1.87-9.48,2.73-14.23.19-1.05.38-2.09.56-3.14.94-5.29,1.83-10.58,2.65-15.89.24-1.57.48-3.15.72-4.72.29-1.97.58-3.95.86-5.92.16-1.18.33-2.37.49-3.56.21-1.58.42-3.16.63-4.74.21-1.59.41-3.17.6-4.76.39-3.15.76-6.31,1.12-9.48,0-.04,0-.09.01-.13.17-1.56.33-3.12.5-4.68.16-1.59.32-3.19.48-4.78.16-1.59.31-3.19.45-4.78.11-1.15.21-2.29.31-3.44.08-.87.15-1.74.22-2.61.1-1.18.2-2.36.29-3.54.11-1.35.21-2.71.31-4.06.05-.54.08-1.08.12-1.62.09-1.31.18-2.62.27-3.93.11-1.6.21-3.21.3-4.81.09-1.51.18-3.01.26-4.51.02-.16.03-.31.03-.47.03-.68.07-1.35.1-2.03.13-2.49.25-4.98.35-7.47.44-10.58.67-21.37.67-32.07,0-6.34-.08-12.68-.23-18.97l1.01.25,1.38-11.18c.35-2.82.75-5.62,1.19-8.4.09-.59.19-1.18.29-1.77.14-.83.28-1.67.43-2.51.15-.84.3-1.68.46-2.51.19-1,.38-1.99.58-2.99.27-1.3.54-2.6.82-3.89.62-2.81,1.28-5.61,2-8.39.17-.68.35-1.36.53-2.03.34-1.29.7-2.59,1.07-3.88.22-.78.44-1.57.68-2.35.2-.69.41-1.38.62-2.06.26-.87.53-1.74.81-2.6.24-.78.49-1.55.75-2.32.25-.77.51-1.54.77-2.31.52-1.53,1.06-3.06,1.61-4.58.27-.76.55-1.52.84-2.27,1.42-3.78,2.92-7.52,4.52-11.21.32-.73.64-1.47.97-2.2,1.31-2.93,2.67-5.83,4.09-8.71.69-1.39,1.39-2.77,2.1-4.14.03-.05.05-.09.07-.13.71-1.37,1.44-2.74,2.18-4.09.4-.75.82-1.49,1.23-2.23.39-.7.78-1.39,1.18-2.09.83-1.45,1.68-2.89,2.53-4.33.78-1.29,1.57-2.58,2.37-3.86.07-.11.14-.21.2-.32.78-1.24,1.57-2.47,2.37-3.69.44-.67.88-1.33,1.32-1.99.43-.66.88-1.32,1.33-1.97.45-.66.9-1.31,1.35-1.96.44-.63.89-1.26,1.33-1.88.48-.67.95-1.33,1.43-1.99.39-.53.77-1.05,1.15-1.57.56-.75,1.12-1.5,1.69-2.25.95-1.27,1.92-2.52,2.91-3.76.49-.61.98-1.23,1.48-1.85s1-1.23,1.5-1.84c1.51-1.83,3.04-3.64,4.61-5.43.52-.59,1.04-1.19,1.57-1.78,1.64-1.84,3.31-3.66,5.01-5.45.48-.5.96-1,1.44-1.5.54-.57,1.09-1.14,1.66-1.7.55-.56,1.11-1.12,1.67-1.68.56-.57,1.12-1.12,1.69-1.66.56-.56,1.13-1.1,1.7-1.65,1.14-1.09,2.3-2.17,3.46-3.25,1.75-1.61,3.52-3.19,5.31-4.73,1.2-1.04,2.42-2.07,3.64-3.1,1.21-1.01,2.43-2,3.66-2.98.62-.49,1.24-.98,1.86-1.47,1.24-.98,2.5-1.94,3.77-2.89.64-.48,1.27-.95,1.91-1.42.64-.48,1.27-.94,1.92-1.4.13-.09.27-.19.4-.29,1.15-.83,2.32-1.65,3.49-2.45.65-.45,1.31-.9,1.96-1.35.66-.44,1.32-.88,1.98-1.32,1.33-.88,2.66-1.74,4-2.59.67-.43,1.35-.85,2.02-1.27,2.03-1.26,4.08-2.49,6.15-3.68.69-.4,1.38-.79,2.07-1.19.7-.39,1.39-.78,2.09-1.16.69-.4,1.39-.78,2.1-1.15.7-.39,1.4-.76,2.11-1.13,2.82-1.49,5.68-2.93,8.58-4.3,3.61-1.73,7.28-3.36,11-4.9.74-.32,1.49-.62,2.24-.92.74-.31,1.49-.61,2.24-.89,5.25-2.07,10.6-3.95,16.03-5.64.05-.02.1-.03.15-.05,2.28-.71,4.57-1.39,6.88-2.03.79-.22,1.58-.43,2.37-.65.13-.03.26-.07.4-.11,1.45-.39,2.9-.76,4.35-1.11.8-.2,1.59-.4,2.39-.58,1.59-.37,3.17-.73,4.77-1.07.26-.05.53-.11.8-.17,2.17-.46,4.35-.89,6.54-1.28.81-.16,1.63-.3,2.44-.43.82-.15,1.64-.29,2.46-.41,2.9-.47,5.81-.89,8.74-1.25l11.2-1.38c-.89-3.68-1.8-7.35-2.74-11.01l-2.18-8.53-8.74,1.08c-3.76.46-7.51,1.01-11.23,1.65h0c-.69.11-1.38.23-2.06.35-.88.16-1.76.32-2.64.49-.88.16-1.76.33-2.64.51-.02,0-.04,0-.06.01-1.64.33-3.28.67-4.91,1.03-.31.07-.61.13-.91.2-.67.15-1.33.3-1.99.46-1.48.34-2.95.7-4.42,1.06-.35.09-.69.18-1.03.26-.79.21-1.57.41-2.36.62-1.81.48-3.61.98-5.4,1.5-2.42.7-4.83,1.43-7.23,2.2-1.07.34-2.14.69-3.2,1.05-2.38.8-4.74,1.63-7.09,2.49-.02.01-.05.02-.07.03-1.54.56-3.08,1.15-4.61,1.74-7.63,2.97-15.11,6.3-22.42,9.97-.67.33-1.33.67-1.99,1.01-1.04.52-2.06,1.06-3.08,1.6-1.41.75-2.81,1.51-4.21,2.28-.14.07-.27.15-.4.22-1.26.7-2.51,1.41-3.75,2.13-1.79,1.03-3.57,2.08-5.33,3.16-.64.39-1.28.78-1.92,1.17-.52.32-1.03.64-1.54.97-.66.41-1.31.83-1.97,1.25-.46.3-.93.6-1.38.9-1.5.98-2.99,1.97-4.47,2.98-3.11,2.12-6.18,4.31-9.2,6.56-.57.43-1.14.86-1.7,1.29-1.43,1.08-2.85,2.18-4.25,3.3-.71.55-1.41,1.12-2.1,1.68-.66.53-1.3,1.06-1.95,1.59-.86.71-1.71,1.43-2.56,2.14-.49.42-.97.83-1.44,1.24-1.45,1.25-2.89,2.51-4.31,3.79-.57.51-1.14,1.03-1.7,1.55-2.75,2.51-5.44,5.09-8.08,7.73s-5.22,5.33-7.73,8.08c-.52.56-1.04,1.13-1.55,1.7-1.28,1.42-2.54,2.86-3.79,4.31-.41.47-.82.95-1.24,1.44-.71.85-1.43,1.7-2.14,2.56-.53.65-1.06,1.29-1.59,1.95-.56.69-1.13,1.39-1.68,2.1-1.12,1.4-2.22,2.82-3.3,4.25-.43.56-.86,1.13-1.29,1.7-2.25,3.02-4.44,6.09-6.56,9.2-1.01,1.48-2,2.97-2.98,4.47-.3.45-.6.92-.9,1.38-.42.66-.84,1.31-1.25,1.97-.33.51-.65,1.02-.97,1.54-.39.64-.78,1.28-1.17,1.92-1.08,1.76-2.13,3.54-3.16,5.33-.72,1.24-1.43,2.49-2.13,3.75-.07.13-.15.26-.22.4-.77,1.4-1.53,2.8-2.28,4.21-.54,1.02-1.08,2.04-1.6,3.08-.34.66-.68,1.32-1.01,1.99-1.05,2.09-2.08,4.2-3.07,6.33-.36.75-.71,1.51-1.05,2.27-2.78,6.07-5.32,12.24-7.62,18.51-.61,1.65-1.2,3.31-1.77,4.97-.67,1.91-1.3,3.84-1.92,5.78-.2.62-.39,1.24-.58,1.86-.27.85-.53,1.71-.78,2.56-.39,1.29-.77,2.58-1.13,3.88-.21.72-.41,1.45-.6,2.17-.17.59-.33,1.18-.48,1.77-.17.63-.33,1.25-.49,1.88-.28,1.07-.55,2.16-.81,3.24-.21.87-.42,1.74-.62,2.61-1.02,4.38-1.93,8.8-2.71,13.24-.08.44-.16.88-.23,1.32-.02.11-.04.22-.06.33-.02.11-.04.22-.06.33h.01c-.64,3.72-1.19,7.46-1.65,11.22l-2.66,56.2-.31,7.39h0c0,.07,0,.12-.01.18-4.19,100.35-28.14,196.96-71.24,287.15-.69,1.44-1.38,2.89-2.08,4.33-2.12,4.38-4.31,8.76-6.55,13.15-.59,1.16-1.19,2.33-1.8,3.5-1.2,2.33-2.42,4.66-3.66,6.99-3.25-3.25-6.47-6.56-9.64-9.92-57.04-60.26-98.07-134.37-118.64-214.32-10.22-39.77-15.4-80.95-15.4-122.4s5.18-82.63,15.4-122.4c20.55-79.87,61.53-153.93,118.52-214.19,5.39-5.72,10.97-11.35,16.63-16.77l2.43-2.31c48.08-45.59,104.97-80.96,166.62-103.87,2.41-.9,4.84-1.78,7.27-2.64,2.43-.86,4.87-1.7,7.32-2.52,2.44-.83,4.9-1.63,7.36-2.41,8.6-2.73,17.29-5.23,26.05-7.48,39.77-10.23,80.95-15.41,122.4-15.41s82.63,5.18,122.4,15.4c44.93,11.56,88.03,29.58,127.86,53.29,2.21,1.31,4.41,2.65,6.61,4,1.09.67,2.19,1.35,3.28,2.04,2.18,1.37,4.35,2.75,6.51,4.16,2.16,1.4,4.31,2.82,6.45,4.26,1.07.72,2.14,1.44,3.2,2.17,3.2,2.18,6.36,4.4,9.51,6.66,3.14,2.25,6.25,4.55,9.34,6.88.01,0,.01.01.01.01,3.09,2.33,6.15,4.7,9.18,7.1h.01c6.07,4.82,12.03,9.78,17.87,14.89,4.87,4.25,9.66,8.61,14.37,13.06h.01c6.51,6.16,12.99,12.63,19.26,19.26,57.1,60.29,98.15,134.44,118.72,214.42,10.23,39.77,15.41,80.95,15.41,122.4,0,25.91-2.02,51.71-6.04,77.13-.4,2.54-.82,5.08-1.26,7.61-.22,1.27-.45,2.53-.68,3.8-.46,2.53-.94,5.05-1.44,7.57-.44,2.21-.89,4.41-1.36,6.61-.35,1.65-.71,3.3-1.08,4.94-1.1,4.94-2.28,9.85-3.54,14.74-.17.67-.34,1.33-.52,2-20.76,79.28-61.65,152.74-118.36,212.57-3.2,3.39-6.49,6.77-9.83,10.1-1.25-2.34-2.48-4.69-3.7-7.05-.61-1.17-1.22-2.35-1.82-3.54-1.82-3.54-3.6-7.1-5.35-10.67-.59-1.19-1.17-2.38-1.74-3.57-.58-1.19-1.15-2.38-1.72-3.57-43.13-90.27-67.1-187-71.25-287.49-.14-3.35-.25-6.72-.34-10.1-.05-1.69-.1-3.38-.13-5.06-.04-1.57-.07-3.14-.09-4.71v-.15c.04-.88.08-1.77.11-2.67.06-1.71.1-3.44.11-5.19.02-1.1.03-2.2.03-3.3s-.01-2.18-.03-3.27c-.01-1.73-.05-3.45-.11-5.15-.03-.9-.07-1.79-.11-2.67v-.36s-.01-.03-.01-.03c-.29-6.89-.87-13.88-1.73-20.77-.46-3.76-1.01-7.5-1.65-11.22h.01c-.09-.53-.18-1.06-.28-1.58-.63-3.59-1.33-7.17-2.12-10.72-.14-.64-.28-1.29-.43-1.93-.07-.33-.15-.66-.23-.99-.2-.87-.41-1.74-.62-2.61-.15-.62-.3-1.24-.46-1.86-.15-.59-.3-1.19-.45-1.78-.26-1-.52-2-.8-3-.22-.8-.44-1.61-.67-2.41-.2-.72-.41-1.44-.62-2.16-.16-.58-.33-1.15-.51-1.73-.25-.85-.51-1.71-.78-2.56-.79-2.57-1.62-5.11-2.5-7.64-.51-1.49-1.04-2.97-1.58-4.44-2.34-6.45-4.95-12.8-7.81-19.04-.34-.76-.69-1.52-1.05-2.27-.99-2.13-2.02-4.24-3.07-6.33-.33-.67-.67-1.33-1.01-1.99-.52-1.04-1.06-2.06-1.6-3.08-.75-1.41-1.51-2.81-2.28-4.21-.07-.14-.15-.27-.22-.4-.7-1.26-1.41-2.51-2.13-3.75-1.03-1.79-2.08-3.57-3.16-5.33-.39-.64-.78-1.28-1.17-1.92-.32-.52-.64-1.03-.97-1.54-.41-.66-.83-1.31-1.25-1.97-.3-.46-.6-.93-.9-1.38-.98-1.5-1.97-2.99-2.98-4.47-2.12-3.11-4.31-6.18-6.56-9.2-.43-.57-.86-1.14-1.29-1.7-1.08-1.43-2.18-2.85-3.3-4.25-.55-.71-1.12-1.41-1.68-2.1-.53-.66-1.06-1.3-1.59-1.95-.71-.86-1.43-1.71-2.14-2.56-.42-.49-.83-.97-1.24-1.44-1.25-1.45-2.51-2.89-3.79-4.31-.51-.57-1.03-1.14-1.55-1.7-2.51-2.75-5.09-5.44-7.73-8.08-2.64-2.64-5.33-5.22-8.08-7.73-.56-.52-1.13-1.04-1.7-1.55-1.42-1.28-2.86-2.54-4.31-3.79-.47-.41-.95-.82-1.44-1.24-.85-.71-1.7-1.43-2.56-2.14-.65-.53-1.29-1.06-1.95-1.59-.69-.56-1.39-1.13-2.1-1.68-1.4-1.12-2.82-2.22-4.25-3.3-.56-.43-1.13-.86-1.7-1.29-3.02-2.25-6.09-4.44-9.2-6.56-1.48-1.01-2.97-2-4.47-2.98-.45-.3-.92-.6-1.38-.9-.66-.42-1.31-.84-1.97-1.25-.51-.33-1.02-.65-1.54-.97-.64-.39-1.28-.78-1.92-1.17-1.76-1.08-3.54-2.13-5.33-3.16-1.24-.72-2.49-1.43-3.75-2.13-.13-.07-.26-.15-.4-.22-1.4-.77-2.8-1.53-4.21-2.28-1.02-.54-2.04-1.08-3.08-1.6-.66-.34-1.32-.68-1.99-1.01-2.09-1.05-4.2-2.08-6.33-3.07-.75-.36-1.51-.71-2.27-1.05-6.07-2.78-12.24-5.32-18.51-7.62-1.65-.61-3.31-1.2-4.97-1.77-1.91-.67-3.84-1.3-5.78-1.92-.62-.2-1.24-.39-1.86-.58-.85-.27-1.71-.53-2.56-.78-1.29-.39-2.58-.77-3.88-1.13-.72-.21-1.45-.41-2.17-.6-.59-.17-1.18-.33-1.77-.48-.63-.17-1.25-.33-1.88-.49-1.07-.28-2.16-.55-3.24-.81-.87-.21-1.74-.42-2.61-.62-4.38-1.02-8.8-1.93-13.24-2.71-.42-.08-.83-.15-1.25-.22-.24-.05-.48-.09-.72-.13h-.01c-3.72-.63-7.46-1.18-11.22-1.64l-8.74-1.08-2.18,8.53c-.94,3.66-1.85,7.33-2.74,11.01l11.2,1.38c2.93.36,5.84.78,8.74,1.25.82.12,1.64.26,2.46.41.81.13,1.63.27,2.44.43,2.19.39,4.37.82,6.54,1.28.27.06.54.12.8.17,1.6.34,3.18.7,4.77,1.07.8.18,1.59.38,2.39.58,1.45.35,2.9.72,4.35,1.11.14.04.27.08.4.11.79.22,1.58.43,2.37.65,2.31.64,4.6,1.32,6.88,2.03.05.02.1.03.15.05,5.43,1.69,10.78,3.57,16.03,5.64.75.28,1.5.58,2.24.89.75.3,1.5.6,2.24.92,3.72,1.54,7.39,3.17,11,4.9,2.9,1.37,5.76,2.81,8.58,4.3.71.37,1.41.74,2.11,1.13.71.37,1.41.75,2.1,1.15.7.38,1.39.77,2.09,1.16.69.4,1.38.79,2.07,1.19,2.07,1.19,4.12,2.42,6.15,3.68.67.42,1.35.84,2.02,1.27,1.34.85,2.67,1.71,4,2.59.66.44,1.32.88,1.98,1.32.65.45,1.31.9,1.96,1.35,1.17.8,2.34,1.62,3.49,2.45.13.1.27.2.4.29.65.46,1.28.92,1.92,1.4.64.47,1.27.94,1.91,1.42,1.27.95,2.53,1.91,3.77,2.89.62.49,1.24.98,1.86,1.47,1.23.98,2.45,1.97,3.66,2.98,1.22,1.03,2.44,2.06,3.64,3.1,1.79,1.54,3.56,3.12,5.31,4.73,1.16,1.08,2.32,2.16,3.46,3.25.57.55,1.14,1.09,1.7,1.65.57.54,1.13,1.09,1.69,1.66.56.55,1.12,1.11,1.67,1.68.57.56,1.12,1.13,1.66,1.7l1.44,1.5c1.7,1.8,3.37,3.61,5.01,5.45.53.59,1.05,1.19,1.57,1.78,1.57,1.79,3.1,3.6,4.61,5.43.5.61,1,1.22,1.5,1.84.51.62,1,1.24,1.48,1.86.99,1.24,1.96,2.49,2.91,3.75.57.75,1.13,1.5,1.69,2.25.38.52.76,1.04,1.15,1.57.48.66.95,1.32,1.43,1.99.44.62.89,1.25,1.33,1.88.45.65.9,1.31,1.35,1.96.45.65.9,1.31,1.33,1.97.44.67.88,1.33,1.32,1.99.8,1.22,1.59,2.45,2.37,3.69.06.11.13.22.2.32.8,1.28,1.59,2.57,2.37,3.86.45.76.89,1.51,1.34,2.27.81,1.38,1.6,2.76,2.37,4.15.41.74.83,1.49,1.23,2.23.74,1.35,1.47,2.72,2.18,4.09.02.04.04.09.07.13.72,1.38,1.42,2.76,2.1,4.15.71,1.43,1.41,2.88,2.09,4.33.34.72.68,1.45,1.01,2.18.33.73.66,1.46.99,2.19.33.74.65,1.47.97,2.21.3.69.6,1.38.88,2.07.34.79.67,1.58.99,2.38.31.74.61,1.49.91,2.24s.59,1.5.88,2.25c.3.75.58,1.51.86,2.26.29.76.57,1.52.84,2.28.24.67.48,1.33.72,2,.3.86.6,1.72.89,2.58.53,1.53,1.04,3.08,1.52,4.63.27.85.54,1.71.8,2.56.22.7.43,1.4.63,2.1.24.78.47,1.57.68,2.35.23.78.44,1.56.66,2.34.68,2.52,1.33,5.06,1.95,7.62.15.64.3,1.29.45,1.93.32,1.43.64,2.86.94,4.29.12.56.24,1.12.35,1.68,1.22,5.98,2.21,12.05,2.98,18.19.01.11.03.21.04.32l1.39,11.24.33-.09c-.06,2.47-.1,4.94-.14,7.42v.57s.01.13.01.13c.16,3.4.24,6.93.24,10.51s-.08,7.19-.24,10.63v.26s-.01.38-.01.38c.1,6.89.3,13.86.58,20.73.1,2.48.22,4.97.34,7.45h0s.01.01.01.01c.03.73.07,1.47.11,2.21.07,1.38.15,2.77.23,4.16.32,5.33.69,10.64,1.11,15.94.11,1.32.22,2.64.33,3.96.13,1.6.27,3.19.42,4.79.1,1.12.21,2.25.32,3.37.09,1.02.19,2.03.3,3.04.42,4.24.87,8.48,1.37,12.7.14,1.21.28,2.42.43,3.63,1.4,11.49,3.06,22.92,4.97,34.29.5,2.96,1.01,5.91,1.54,8.86,1.43,7.89,2.98,15.74,4.65,23.55.15.72.31,1.44.46,2.16.21.97.43,1.93.64,2.9.41,1.85.82,3.69,1.24,5.52.29,1.26.58,2.52.88,3.78.36,1.54.73,3.09,1.1,4.63.37,1.55.75,3.09,1.13,4.63.41,1.66.82,3.31,1.25,4.96.36,1.43.73,2.85,1.1,4.27,1.07,4.11,2.18,8.21,3.33,12.3.41,1.49.84,2.98,1.26,4.47.43,1.49.86,2.98,1.3,4.47.43,1.49.87,2.98,1.32,4.46.44,1.48.89,2.97,1.35,4.45.45,1.48.91,2.96,1.38,4.44.46,1.48.93,2.96,1.4,4.44.44,1.36.88,2.72,1.32,4.08.08.24.16.47.23.7.45,1.36.89,2.71,1.35,4.06.42,1.28.85,2.56,1.28,3.83,1.18,3.46,2.38,6.91,3.61,10.35.41,1.14.81,2.28,1.23,3.42,1.05,2.92,2.13,5.83,3.22,8.74.55,1.46,1.1,2.91,1.66,4.37.55,1.45,1.11,2.9,1.68,4.35.57,1.45,1.14,2.9,1.71,4.34.57,1.45,1.15,2.89,1.74,4.34.58,1.44,1.17,2.88,1.76,4.32.6,1.45,1.19,2.89,1.8,4.32.6,1.44,1.2,2.88,1.82,4.31.77,1.81,1.54,3.62,2.33,5.42.46,1.06.92,2.12,1.39,3.18,3.15,7.14,6.41,14.25,9.79,21.32,4.12,8.64,8.45,17.27,12.92,25.79,1.79,3.41,3.61,6.8,5.44,10.16.92,1.68,1.84,3.36,2.77,5.03l.88,1.59,5.36,9.66.08-.07,9.28-8.76c1.89-1.78,3.78-3.59,5.65-5.41,4.9-4.77,9.71-9.65,14.35-14.56,56.52-59.63,97.94-132.28,120.32-210.81,1.19-4.16,2.32-8.34,3.4-12.53.64-2.49,1.26-4.99,1.86-7.49,1.47-6.11,2.83-12.24,4.07-18.4.24-1.23.49-2.46.73-3.7.24-1.23.47-2.46.7-3.7.23-1.24.46-2.47.68-3.71.23-1.24.44-2.48.65-3.72.42-2.48.83-4.96,1.22-7.45.59-3.74,1.13-7.48,1.62-11.22.32-2.36.62-4.73.89-7.1.32-2.64.61-5.28.88-7.92.09-.85.18-1.7.26-2.55.18-1.77.34-3.54.5-5.31.08-1.01.17-2.01.25-3.02.02-.21.04-.42.06-.62.06-.85.13-1.7.19-2.55.29-3.8.53-7.6.74-11.4.06-1.1.11-2.2.16-3.3.04-.8.08-1.6.11-2.4.04-.95.08-1.9.11-2.85.06-1.58.11-3.16.15-4.74.03-.94.05-1.89.07-2.84.03-1.26.06-2.53.07-3.8.01-.49.02-.98.02-1.47.03-2.04.04-4.08.04-6.12s-.01-4.08-.04-6.12Zm-766.33-37.35h.01c.02-.11.03-.22.05-.33-.02.11-.04.22-.06.33Zm299.85-212.9h-.01c.24.05.49.09.73.13-.24-.05-.48-.09-.72-.13Zm-89.02.36c.68-.12,1.37-.24,2.06-.35h0c-.69.11-1.38.23-2.06.35Zm301.63,210.96c.1.52.19,1.05.27,1.58h.01c-.09-.53-.18-1.06-.28-1.58Zm3.88,41.78c-.01-1.73-.05-3.45-.11-5.15-.03-.9-.07-1.79-.11-2.67v.24c-.05,3.95-.08,7.54-.08,10.96s.03,6.94.08,10.84v.21c.04-.88.08-1.77.11-2.67.06-1.71.1-3.44.11-5.19.02-1.1.03-2.2.03-3.3s-.01-2.18-.03-3.27Zm-516.34-40.2h.01c.02-.11.03-.22.05-.33-.02.11-.04.22-.06.33Zm299.85-212.9h-.01c.24.05.49.09.73.13-.24-.05-.48-.09-.72-.13Zm-89.02.36c.68-.12,1.37-.24,2.06-.35h0c-.69.11-1.38.23-2.06.35Zm305.51,252.74c-.01-1.73-.05-3.45-.11-5.15-.03-.9-.07-1.79-.11-2.67v.24c-.05,3.95-.08,7.54-.08,10.96s.03,6.94.08,10.84v.21c.04-.88.08-1.77.11-2.67.06-1.71.1-3.44.11-5.19.02-1.1.03-2.2.03-3.3s-.01-2.18-.03-3.27Zm-3.88-41.78c.1.52.19,1.05.27,1.58h.01c-.09-.53-.18-1.06-.28-1.58Z"/>
      <path class="cls-1" d="m965.03,780.2c2.17-.45,4.35-.88,6.54-1.28-2.19.39-4.37.82-6.54,1.28Zm-38.14,11.41c5.26-2.06,10.6-3.94,16.03-5.64-5.43,1.69-10.78,3.57-16.03,5.64Zm-15.48,6.71c3.62-1.72,7.29-3.35,11-4.9-3.72,1.54-7.39,3.17-11,4.9Zm-8.58,4.3c2.83-1.48,5.69-2.92,8.58-4.3-2.9,1.37-5.76,2.81-8.58,4.3Zm-14.52,8.31c2.03-1.25,4.08-2.48,6.15-3.68-2.07,1.19-4.12,2.42-6.15,3.68Zm-35.92,27.26c1.75-1.6,3.52-3.18,5.31-4.73-1.79,1.54-3.56,3.12-5.31,4.73Zm112.64-57.99c2.17-.45,4.35-.88,6.54-1.28-2.19.39-4.37.82-6.54,1.28Zm-38.14,11.41c5.26-2.06,10.6-3.94,16.03-5.64-5.43,1.69-10.78,3.57-16.03,5.64Zm-15.48,6.71c3.62-1.72,7.29-3.35,11-4.9-3.72,1.54-7.39,3.17-11,4.9Zm-8.58,4.3c2.83-1.48,5.69-2.92,8.58-4.3-2.9,1.37-5.76,2.81-8.58,4.3Zm-14.52,8.31c2.03-1.25,4.08-2.48,6.15-3.68-2.07,1.19-4.12,2.42-6.15,3.68Zm-35.92,27.26c1.75-1.6,3.52-3.18,5.31-4.73-1.79,1.54-3.56,3.12-5.31,4.73Zm112.64-57.99c2.17-.45,4.35-.88,6.54-1.28-2.19.39-4.37.82-6.54,1.28Zm-38.14,11.41c5.26-2.06,10.6-3.94,16.03-5.64-5.43,1.69-10.78,3.57-16.03,5.64Zm-15.48,6.71c3.62-1.72,7.29-3.35,11-4.9-3.72,1.54-7.39,3.17-11,4.9Zm-8.58,4.3c2.83-1.48,5.69-2.92,8.58-4.3-2.9,1.37-5.76,2.81-8.58,4.3Zm-14.52,8.31c2.03-1.25,4.08-2.48,6.15-3.68-2.07,1.19-4.12,2.42-6.15,3.68Zm-35.92,27.26c1.75-1.6,3.52-3.18,5.31-4.73-1.79,1.54-3.56,3.12-5.31,4.73Zm112.64-57.99c2.17-.45,4.35-.88,6.54-1.28-2.19.39-4.37.82-6.54,1.28Zm-38.14,11.41c5.26-2.06,10.6-3.94,16.03-5.64-5.43,1.69-10.78,3.57-16.03,5.64Zm-15.48,6.71c3.62-1.72,7.29-3.35,11-4.9-3.72,1.54-7.39,3.17-11,4.9Zm-8.58,4.3c2.83-1.48,5.69-2.92,8.58-4.3-2.9,1.37-5.76,2.81-8.58,4.3Zm-14.52,8.31c2.03-1.25,4.08-2.48,6.15-3.68-2.07,1.19-4.12,2.42-6.15,3.68Zm-35.92,27.26c1.75-1.6,3.52-3.18,5.31-4.73-1.79,1.54-3.56,3.12-5.31,4.73Zm112.64-57.99c2.17-.45,4.35-.88,6.54-1.28-2.19.39-4.37.82-6.54,1.28Zm-38.14,11.41c5.26-2.06,10.6-3.94,16.03-5.64-5.43,1.69-10.78,3.57-16.03,5.64Zm-15.48,6.71c3.62-1.72,7.29-3.35,11-4.9-3.72,1.54-7.39,3.17-11,4.9Zm-8.58,4.3c2.83-1.48,5.69-2.92,8.58-4.3-2.9,1.37-5.76,2.81-8.58,4.3Zm-14.52,8.31c2.03-1.25,4.08-2.48,6.15-3.68-2.07,1.19-4.12,2.42-6.15,3.68Zm-35.92,27.26c1.75-1.6,3.52-3.18,5.31-4.73-1.79,1.54-3.56,3.12-5.31,4.73Zm112.64-57.99c2.17-.45,4.35-.88,6.54-1.28-2.19.39-4.37.82-6.54,1.28Zm-38.14,11.41c5.26-2.06,10.6-3.94,16.03-5.64-5.43,1.69-10.78,3.57-16.03,5.64Zm-15.48,6.71c3.62-1.72,7.29-3.35,11-4.9-3.72,1.54-7.39,3.17-11,4.9Zm-8.58,4.3c2.83-1.48,5.69-2.92,8.58-4.3-2.9,1.37-5.76,2.81-8.58,4.3Zm-14.52,8.31c2.03-1.25,4.08-2.48,6.15-3.68-2.07,1.19-4.12,2.42-6.15,3.68Zm-35.92,27.26c1.75-1.6,3.52-3.18,5.31-4.73-1.79,1.54-3.56,3.12-5.31,4.73Zm119.18-59.27c-2.19.39-4.37.82-6.54,1.28,2.17-.45,4.35-.88,6.54-1.28Zm-28.65,7.05c-5.43,1.69-10.78,3.57-16.03,5.64,5.26-2.06,10.6-3.94,16.03-5.64Zm-20.51,7.45c-3.72,1.54-7.39,3.17-11,4.9,3.62-1.72,7.29-3.35,11-4.9Zm-11,4.9c-2.9,1.37-5.76,2.81-8.58,4.3,2.83-1.48,5.69-2.92,8.58-4.3Zm-16.95,8.93c-2.07,1.19-4.12,2.42-6.15,3.68,2.03-1.25,4.08-2.48,6.15-3.68Zm-36.76,26.21c-1.79,1.54-3.56,3.12-5.31,4.73,1.75-1.6,3.52-3.18,5.31-4.73Zm157.3,38.94c-4.6-32.56-10.78-64.84-18.53-96.69,0-.09-.04-.18-.06-.26-.89-3.68-1.8-7.35-2.74-11.01l-2.18-8.53-8.74,1.08c-3.76.46-7.51,1.01-11.23,1.65-.69.11-1.38.23-2.06.35-.88.16-1.76.32-2.64.49-.88.16-1.76.33-2.64.51-.02,0-.04,0-.06.01-1.64.33-3.28.67-4.91,1.03-.31.07-.61.13-.91.2-.67.15-1.33.3-1.99.46-1.48.34-2.95.7-4.42,1.06-.35.09-.69.18-1.03.26-.79.21-1.57.41-2.36.62-1.81.48-3.61.98-5.4,1.5-2.42.7-4.83,1.43-7.23,2.2-1.07.34-2.14.69-3.2,1.05-2.38.8-4.74,1.63-7.09,2.49-.02.01-.05.02-.07.03-1.54.56-3.08,1.15-4.61,1.74-7.63,2.97-15.11,6.3-22.42,9.97-.67.33-1.33.67-1.99,1.01-1.04.52-2.06,1.06-3.08,1.6-1.41.75-2.81,1.51-4.21,2.28-.14.07-.27.15-.4.22-1.26.7-2.51,1.41-3.75,2.13-1.79,1.03-3.57,2.08-5.33,3.16-.64.39-1.28.78-1.92,1.17-.52.32-1.03.64-1.54.97-.66.41-1.31.83-1.97,1.25-.46.3-.93.6-1.38.9-1.5.98-2.99,1.97-4.47,2.98-3.11,2.12-6.18,4.31-9.2,6.56-.57.43-1.14.86-1.7,1.29-1.43,1.08-2.85,2.18-4.25,3.3-.71.55-1.41,1.12-2.1,1.68-.66.53-1.3,1.06-1.95,1.59-.86.71-1.71,1.43-2.56,2.14-.49.42-.97.83-1.44,1.24-1.45,1.25-2.89,2.51-4.31,3.79-.57.51-1.14,1.03-1.7,1.55-2.75,2.51-5.44,5.09-8.08,7.73s-5.22,5.33-7.73,8.08c-.52.56-1.04,1.13-1.55,1.7-1.28,1.42-2.54,2.86-3.79,4.31-.41.47-.82.95-1.24,1.44-.71.85-1.43,1.7-2.14,2.56-.53.65-1.06,1.29-1.59,1.95-.56.69-1.13,1.39-1.68,2.1-1.12,1.4-2.22,2.82-3.3,4.25-.43.56-.86,1.13-1.29,1.7-2.25,3.02-4.44,6.09-6.56,9.2-1.01,1.48-2,2.97-2.98,4.47-.3.45-.6.92-.9,1.38-.42.66-.84,1.31-1.25,1.97-.33.51-.65,1.02-.97,1.54-.39.64-.78,1.28-1.17,1.92-1.08,1.76-2.13,3.54-3.16,5.33-.72,1.24-1.43,2.49-2.13,3.75-.07.13-.15.26-.22.4-.77,1.4-1.53,2.8-2.28,4.21-.54,1.02-1.08,2.04-1.6,3.08-.34.66-.68,1.32-1.01,1.99-1.05,2.09-2.08,4.2-3.07,6.33-.36.75-.71,1.51-1.05,2.27-2.78,6.07-5.32,12.24-7.62,18.51-.61,1.65-1.2,3.31-1.77,4.97-.67,1.91-1.3,3.84-1.92,5.78-.2.62-.39,1.24-.58,1.86-.27.85-.53,1.71-.78,2.56-.39,1.29-.77,2.58-1.13,3.88-.21.72-.41,1.45-.6,2.17-.17.59-.33,1.18-.48,1.77-.17.63-.33,1.25-.49,1.88-.28,1.07-.55,2.16-.81,3.24-.21.87-.42,1.74-.62,2.61-1.02,4.38-1.93,8.8-2.71,13.24-.08.44-.16.88-.23,1.32-.02.11-.04.22-.06.33-.02.11-.03.22-.05.33-.64,3.72-1.19,7.46-1.65,11.22l-2.66,56.2-.31,7.39h0c0,.07,0,.12-.01.18-4.19,100.35-28.14,196.96-71.24,287.15-.69,1.44-1.38,2.89-2.08,4.33-2.12,4.38-4.31,8.76-6.55,13.15-.59,1.16-1.19,2.33-1.8,3.5-1.2,2.33-2.42,4.66-3.66,6.99-2.05,3.86-4.13,7.7-6.25,11.53-1.24,2.24-2.49,4.47-3.75,6.69-39.74,70.04-90.41,132.87-150.68,186.83-52.57,47.05-111.37,86.25-174.77,116.53-13.37,6.39-27.03,12.41-40.6,17.9-78.44,31.82-161.34,49.76-246.4,53.33l-7.41.31-1.85,7.18c-21.21,82.21-31.97,167.35-31.97,253.06v10h10c85.62,0,170.69-10.74,252.83-31.91,88.25-22.74,173.1-57.47,252.17-103.22,7.33-4.24,14.78-8.67,22.14-13.18,72.45-44.42,139.23-97.96,198.46-159.14,51.62-53.29,97.4-112.3,136.09-175.42,7.67-12.52,15.13-25.3,22.16-38,41.24-74.33,72.91-153.69,94.13-235.86.24-.93.48-1.85.69-2.71,9.06-35.5,16.19-71.55,21.33-107.96,6.65-47.08,10-94.75,10-142.6s-3.35-95.52-10-142.6Zm-40.73,388.29c-.21.85-.43,1.71-.65,2.57-20.8,80.54-51.84,158.32-92.26,231.17-6.89,12.45-14.2,24.98-21.73,37.25-37.92,61.87-82.8,119.72-133.39,171.95-58.07,59.98-123.53,112.47-194.56,156-7.21,4.43-14.5,8.77-21.69,12.92-77.5,44.84-160.66,78.88-247.16,101.18-77.29,19.92-157.24,30.41-237.78,31.22.78-78.15,10.68-155.72,29.47-230.87,84.75-4.37,167.35-22.67,245.62-54.42,13.94-5.64,27.97-11.83,41.71-18.4,65.11-31.09,125.5-71.35,179.49-119.67,60.64-54.29,111.82-117.34,152.25-187.54,2.15-3.71,4.26-7.45,6.34-11.2,7.43-13.42,14.46-27.07,20.89-40.57.69-1.45,1.38-2.9,2.06-4.35.68-1.45,1.36-2.9,2.03-4.36,1.94-4.19,3.84-8.39,5.69-12.6.35-.8.71-1.6,1.05-2.4.37-.84.74-1.68,1.1-2.53,2.13-4.91,4.2-9.84,6.21-14.78.39-.96.78-1.93,1.17-2.9.6-1.48,1.19-2.96,1.77-4.44.56-1.4,1.11-2.8,1.65-4.2,1.32-3.38,2.6-6.77,3.86-10.17.44-1.16.87-2.32,1.29-3.49.55-1.49,1.09-2.99,1.63-4.48.51-1.43,1.02-2.85,1.52-4.28.63-1.78,1.25-3.55,1.86-5.33.45-1.3.89-2.6,1.33-3.91.51-1.5,1.01-3.01,1.51-4.52s.99-3.02,1.48-4.53c.49-1.51.98-3.02,1.45-4.54.39-1.22.77-2.44,1.15-3.66.16-.5.32-1,.47-1.49.4-1.31.8-2.63,1.2-3.95.39-1.28.78-2.57,1.16-3.86.24-.8.48-1.6.71-2.4.73-2.48,1.45-4.96,2.14-7.45,1.3-4.58,2.54-9.17,3.75-13.78.4-1.54.8-3.07,1.19-4.61.39-1.53.78-3.07,1.16-4.62.38-1.54.76-3.08,1.13-4.63,1.87-7.72,3.61-15.46,5.22-23.24.3-1.43.59-2.86.88-4.3.96-4.73,1.87-9.48,2.73-14.23.19-1.05.38-2.09.56-3.14.94-5.29,1.83-10.58,2.65-15.89.24-1.57.48-3.15.72-4.72.29-1.97.58-3.95.86-5.92.16-1.18.33-2.37.49-3.56.21-1.58.42-3.16.63-4.74.21-1.59.41-3.17.6-4.76.39-3.15.76-6.31,1.12-9.48,0-.04,0-.09.01-.13.17-1.56.33-3.12.5-4.68.16-1.59.32-3.19.48-4.78.16-1.59.31-3.19.45-4.78.11-1.15.21-2.29.31-3.44.08-.87.15-1.74.22-2.61.1-1.18.2-2.36.29-3.54.11-1.35.21-2.71.31-4.06.05-.54.08-1.08.12-1.62.09-1.31.18-2.62.27-3.93.11-1.6.21-3.21.3-4.81.09-1.51.18-3.01.26-4.51.02-.16.03-.31.03-.47.04-.68.08-1.35.11-2.03h0c.13-2.49.25-4.98.35-7.47.44-10.58.67-21.37.67-32.07,0-6.34-.08-12.68-.23-18.97l1.01.25,1.38-11.18c.35-2.82.75-5.62,1.19-8.4.09-.59.19-1.18.29-1.77.14-.83.28-1.67.43-2.51.15-.84.3-1.68.46-2.51.19-1,.38-1.99.58-2.99.26-1.3.54-2.6.82-3.89.62-2.81,1.28-5.61,2-8.39.17-.68.35-1.36.53-2.03.34-1.29.7-2.59,1.07-3.88.22-.78.45-1.56.68-2.35.2-.69.41-1.38.62-2.06.26-.87.53-1.74.81-2.6.24-.78.49-1.55.75-2.32.25-.77.51-1.54.77-2.31.52-1.53,1.06-3.06,1.61-4.58.27-.76.55-1.52.84-2.27,1.42-3.78,2.92-7.52,4.52-11.21.32-.73.64-1.47.97-2.2,1.31-2.93,2.67-5.83,4.09-8.71.69-1.39,1.39-2.77,2.1-4.14.03-.05.05-.09.07-.13.71-1.37,1.44-2.74,2.18-4.09.4-.75.82-1.49,1.23-2.23.39-.7.78-1.39,1.18-2.09.83-1.45,1.68-2.89,2.53-4.33.78-1.29,1.57-2.58,2.37-3.86.07-.11.14-.21.2-.32.78-1.24,1.57-2.47,2.37-3.69.44-.67.88-1.33,1.32-1.99s.88-1.32,1.33-1.97c.45-.66.9-1.31,1.35-1.96.44-.63.89-1.26,1.33-1.88.48-.67.95-1.33,1.43-1.99.39-.53.77-1.05,1.15-1.57.56-.75,1.12-1.5,1.69-2.25.96-1.26,1.93-2.51,2.91-3.76.49-.61.98-1.23,1.48-1.85s1-1.23,1.5-1.84c1.51-1.83,3.04-3.64,4.61-5.43.52-.59,1.04-1.19,1.57-1.78,1.64-1.84,3.31-3.66,5.01-5.45.48-.5.96-1,1.44-1.5.55-.57,1.1-1.13,1.66-1.7.55-.56,1.11-1.12,1.67-1.68s1.12-1.11,1.69-1.66c.56-.56,1.13-1.1,1.7-1.65,1.14-1.09,2.3-2.17,3.46-3.25,1.75-1.6,3.52-3.18,5.31-4.73,1.2-1.04,2.42-2.07,3.64-3.1,1.21-1.01,2.43-2,3.66-2.98.62-.49,1.24-.98,1.86-1.47,1.25-.97,2.5-1.94,3.77-2.89.64-.48,1.27-.95,1.91-1.42.64-.47,1.28-.94,1.92-1.4.13-.09.27-.19.4-.29,1.15-.83,2.32-1.65,3.49-2.45.65-.45,1.31-.9,1.96-1.35.66-.44,1.32-.88,1.98-1.32,1.33-.88,2.66-1.74,4-2.59.67-.43,1.35-.85,2.02-1.27,2.03-1.25,4.08-2.48,6.15-3.68.69-.4,1.38-.79,2.07-1.19.7-.39,1.39-.78,2.09-1.16.7-.39,1.4-.77,2.1-1.15.7-.38,1.41-.75,2.11-1.13,2.83-1.48,5.69-2.92,8.58-4.3,3.62-1.72,7.29-3.35,11-4.9.74-.31,1.49-.61,2.24-.92.74-.3,1.49-.6,2.24-.89,5.26-2.06,10.6-3.94,16.03-5.64.05-.02.1-.03.15-.05,2.28-.71,4.57-1.39,6.88-2.03.79-.22,1.58-.43,2.37-.65.13-.03.26-.07.4-.11,1.45-.39,2.9-.76,4.35-1.11.8-.2,1.6-.39,2.39-.58,1.59-.37,3.17-.73,4.77-1.07.26-.05.53-.11.8-.17,2.17-.45,4.35-.88,6.54-1.28.81-.15,1.63-.29,2.44-.43.82-.14,1.64-.28,2.46-.41,18.93,77.09,28.53,156.75,28.53,236.92s-10.33,165.83-30.73,245.69Zm-121.88-422.5c1.75-1.6,3.52-3.18,5.31-4.73-1.79,1.54-3.56,3.12-5.31,4.73Zm35.92-27.26c2.03-1.25,4.08-2.48,6.15-3.68-2.07,1.19-4.12,2.42-6.15,3.68Zm14.52-8.31c2.83-1.48,5.69-2.92,8.58-4.3-2.9,1.37-5.76,2.81-8.58,4.3Zm8.58-4.3c3.62-1.72,7.29-3.35,11-4.9-3.72,1.54-7.39,3.17-11,4.9Zm15.48-6.71c5.26-2.06,10.6-3.94,16.03-5.64-5.43,1.69-10.78,3.57-16.03,5.64Zm38.14-11.41c2.17-.45,4.35-.88,6.54-1.28-2.19.39-4.37.82-6.54,1.28Zm-112.64,57.99c1.75-1.6,3.52-3.18,5.31-4.73-1.79,1.54-3.56,3.12-5.31,4.73Zm35.92-27.26c2.03-1.25,4.08-2.48,6.15-3.68-2.07,1.19-4.12,2.42-6.15,3.68Zm14.52-8.31c2.83-1.48,5.69-2.92,8.58-4.3-2.9,1.37-5.76,2.81-8.58,4.3Zm8.58-4.3c3.62-1.72,7.29-3.35,11-4.9-3.72,1.54-7.39,3.17-11,4.9Zm15.48-6.71c5.26-2.06,10.6-3.94,16.03-5.64-5.43,1.69-10.78,3.57-16.03,5.64Zm38.14-11.41c2.17-.45,4.35-.88,6.54-1.28-2.19.39-4.37.82-6.54,1.28Zm-112.64,57.99c1.75-1.6,3.52-3.18,5.31-4.73-1.79,1.54-3.56,3.12-5.31,4.73Zm35.92-27.26c2.03-1.25,4.08-2.48,6.15-3.68-2.07,1.19-4.12,2.42-6.15,3.68Zm14.52-8.31c2.83-1.48,5.69-2.92,8.58-4.3-2.9,1.37-5.76,2.81-8.58,4.3Zm8.58-4.3c3.62-1.72,7.29-3.35,11-4.9-3.72,1.54-7.39,3.17-11,4.9Zm15.48-6.71c5.26-2.06,10.6-3.94,16.03-5.64-5.43,1.69-10.78,3.57-16.03,5.64Zm38.14-11.41c2.17-.45,4.35-.88,6.54-1.28-2.19.39-4.37.82-6.54,1.28Zm-112.64,57.99c1.75-1.6,3.52-3.18,5.31-4.73-1.79,1.54-3.56,3.12-5.31,4.73Zm35.92-27.26c2.03-1.25,4.08-2.48,6.15-3.68-2.07,1.19-4.12,2.42-6.15,3.68Zm14.52-8.31c2.83-1.48,5.69-2.92,8.58-4.3-2.9,1.37-5.76,2.81-8.58,4.3Zm8.58-4.3c3.62-1.72,7.29-3.35,11-4.9-3.72,1.54-7.39,3.17-11,4.9Zm15.48-6.71c5.26-2.06,10.6-3.94,16.03-5.64-5.43,1.69-10.78,3.57-16.03,5.64Zm38.14-11.41c2.17-.45,4.35-.88,6.54-1.28-2.19.39-4.37.82-6.54,1.28Zm-112.64,57.99c1.75-1.6,3.52-3.18,5.31-4.73-1.79,1.54-3.56,3.12-5.31,4.73Zm35.92-27.26c2.03-1.25,4.08-2.48,6.15-3.68-2.07,1.19-4.12,2.42-6.15,3.68Zm14.52-8.31c2.83-1.48,5.69-2.92,8.58-4.3-2.9,1.37-5.76,2.81-8.58,4.3Zm8.58-4.3c3.62-1.72,7.29-3.35,11-4.9-3.72,1.54-7.39,3.17-11,4.9Zm15.48-6.71c5.26-2.06,10.6-3.94,16.03-5.64-5.43,1.69-10.78,3.57-16.03,5.64Zm38.14-11.41c2.17-.45,4.35-.88,6.54-1.28-2.19.39-4.37.82-6.54,1.28Zm-112.64,57.99c1.75-1.6,3.52-3.18,5.31-4.73-1.79,1.54-3.56,3.12-5.31,4.73Zm35.92-27.26c2.03-1.25,4.08-2.48,6.15-3.68-2.07,1.19-4.12,2.42-6.15,3.68Zm14.52-8.31c2.83-1.48,5.69-2.92,8.58-4.3-2.9,1.37-5.76,2.81-8.58,4.3Zm8.58-4.3c3.62-1.72,7.29-3.35,11-4.9-3.72,1.54-7.39,3.17-11,4.9Zm15.48-6.71c5.26-2.06,10.6-3.94,16.03-5.64-5.43,1.69-10.78,3.57-16.03,5.64Zm38.14-11.41c2.17-.45,4.35-.88,6.54-1.28-2.19.39-4.37.82-6.54,1.28Z"/>
      <path class="cls-1" d="m1349.65,1383.27c-.93-1.67-1.85-3.35-2.77-5.03.91,1.68,1.83,3.36,2.76,5.03.29.53.59,1.06.89,1.59l-.88-1.59Zm-93.97-328.81h-.01c.04.74.08,1.47.12,2.21-.04-.74-.08-1.48-.11-2.21Zm-1.12-58l-1.39-11.24c.1.8.19,1.6.28,2.39.17,1.47.32,2.93.46,4.4.39,4.02.66,8.05.84,12.04v-.26c.04-2.48.08-4.95.14-7.42l-.33.09Zm20.19,7.62l-19.99.28v-.23c-.06,3.94-.09,7.54-.09,10.98s.03,6.92.08,10.78v-.2s20,.28,20,.28v-.02c-.05-3.9-.08-7.45-.08-10.84s.03-7.01.08-10.96v-.07Zm-102.45-170.62c1.79,1.55,3.56,3.13,5.31,4.73-1.75-1.61-3.52-3.19-5.31-4.73Zm-36.76-26.21c2.07,1.2,4.12,2.43,6.15,3.68-2.03-1.26-4.08-2.49-6.15-3.68Zm-16.95-8.93c2.89,1.38,5.75,2.82,8.58,4.3-2.82-1.49-5.68-2.93-8.58-4.3Zm-11-4.9c3.71,1.55,7.38,3.18,11,4.9-3.61-1.73-7.28-3.36-11-4.9Zm-20.51-7.45c5.43,1.7,10.77,3.58,16.03,5.64-5.25-2.07-10.6-3.95-16.03-5.64Zm-28.65-7.05c2.19.4,4.37.83,6.54,1.28-2.17-.46-4.35-.89-6.54-1.28Zm291.22,604.35c-.93-1.67-1.85-3.35-2.77-5.03.91,1.68,1.83,3.36,2.76,5.03.29.53.59,1.06.89,1.59l-.88-1.59Zm-93.97-328.81h-.01c.04.74.08,1.47.12,2.21-.04-.74-.08-1.48-.11-2.21Zm-1.12-58l-1.39-11.24c.1.8.19,1.6.28,2.39.17,1.47.32,2.93.46,4.4.39,4.02.66,8.05.84,12.04v-.26c.04-2.48.08-4.95.14-7.42l-.33.09Zm20.19,7.62l-19.99.28v-.23c-.06,3.94-.09,7.54-.09,10.98s.03,6.92.08,10.78v-.2s20,.28,20,.28v-.02c-.05-3.9-.08-7.45-.08-10.84s.03-7.01.08-10.96v-.07Zm-102.45-170.62c1.79,1.55,3.56,3.13,5.31,4.73-1.75-1.61-3.52-3.19-5.31-4.73Zm-36.76-26.21c2.07,1.2,4.12,2.43,6.15,3.68-2.03-1.26-4.08-2.49-6.15-3.68Zm-16.95-8.93c2.89,1.38,5.75,2.82,8.58,4.3-2.82-1.49-5.68-2.93-8.58-4.3Zm-11-4.9c3.71,1.55,7.38,3.18,11,4.9-3.61-1.73-7.28-3.36-11-4.9Zm-20.51-7.45c5.43,1.7,10.77,3.58,16.03,5.64-5.25-2.07-10.6-3.95-16.03-5.64Zm-28.65-7.05c2.19.4,4.37.83,6.54,1.28-2.17-.46-4.35-.89-6.54-1.28Zm291.22,604.35c-.93-1.67-1.85-3.35-2.77-5.03.91,1.68,1.83,3.36,2.76,5.03.29.53.59,1.06.89,1.59l-.88-1.59Zm-93.97-328.81h-.01c.04.74.08,1.47.12,2.21-.04-.74-.08-1.48-.11-2.21Zm-1.12-58l-1.39-11.24c.1.8.19,1.6.28,2.39.17,1.47.32,2.93.46,4.4.39,4.02.66,8.05.84,12.04v-.26c.04-2.48.08-4.95.14-7.42l-.33.09Zm20.19,7.62l-19.99.28v-.23c-.06,3.94-.09,7.54-.09,10.98s.03,6.92.08,10.78v-.2s20,.28,20,.28v-.02c-.05-3.9-.08-7.45-.08-10.84s.03-7.01.08-10.96v-.07Zm-102.45-170.62c1.79,1.55,3.56,3.13,5.31,4.73-1.75-1.61-3.52-3.19-5.31-4.73Zm-36.76-26.21c2.07,1.2,4.12,2.43,6.15,3.68-2.03-1.26-4.08-2.49-6.15-3.68Zm-16.95-8.93c2.89,1.38,5.75,2.82,8.58,4.3-2.82-1.49-5.68-2.93-8.58-4.3Zm-11-4.9c3.71,1.55,7.38,3.18,11,4.9-3.61-1.73-7.28-3.36-11-4.9Zm-20.51-7.45c5.43,1.7,10.77,3.58,16.03,5.64-5.25-2.07-10.6-3.95-16.03-5.64Zm-28.65-7.05c2.19.4,4.37.83,6.54,1.28-2.17-.46-4.35-.89-6.54-1.28Zm291.22,604.35c-.93-1.67-1.85-3.35-2.77-5.03.91,1.68,1.83,3.36,2.76,5.03.29.53.59,1.06.89,1.59l-.88-1.59Zm-93.97-328.81h-.01c.04.74.08,1.47.12,2.21-.04-.74-.08-1.48-.11-2.21Zm-1.12-58l-1.39-11.24c.1.8.19,1.6.28,2.39.17,1.47.32,2.93.46,4.4.39,4.02.66,8.05.84,12.04v-.26c.04-2.48.08-4.95.14-7.42l-.33.09Zm20.19,7.62l-19.99.28v-.23c-.06,3.94-.09,7.54-.09,10.98s.03,6.92.08,10.78v-.2s20,.28,20,.28v-.02c-.05-3.9-.08-7.45-.08-10.84s.03-7.01.08-10.96v-.07Zm-102.45-170.62c1.79,1.55,3.56,3.13,5.31,4.73-1.75-1.61-3.52-3.19-5.31-4.73Zm-36.76-26.21c2.07,1.2,4.12,2.43,6.15,3.68-2.03-1.26-4.08-2.49-6.15-3.68Zm-16.95-8.93c2.89,1.38,5.75,2.82,8.58,4.3-2.82-1.49-5.68-2.93-8.58-4.3Zm-11-4.9c3.71,1.55,7.38,3.18,11,4.9-3.61-1.73-7.28-3.36-11-4.9Zm-20.51-7.45c5.43,1.7,10.77,3.58,16.03,5.64-5.25-2.07-10.6-3.95-16.03-5.64Zm-28.65-7.05c2.19.4,4.37.83,6.54,1.28-2.17-.46-4.35-.89-6.54-1.28Zm291.22,604.35c-.93-1.67-1.85-3.35-2.77-5.03.91,1.68,1.83,3.36,2.76,5.03.29.53.59,1.06.89,1.59l-.88-1.59Zm-93.97-328.81h-.01c.04.74.08,1.47.12,2.21-.04-.74-.08-1.48-.11-2.21Zm-1.12-58l-1.39-11.24c.1.8.19,1.6.28,2.39.17,1.47.32,2.93.46,4.4.39,4.02.66,8.05.84,12.04v-.26c.04-2.48.08-4.95.14-7.42l-.33.09Zm20.19,7.62l-19.99.28v-.23c-.06,3.94-.09,7.54-.09,10.98s.03,6.92.08,10.78v-.2s20,.28,20,.28v-.02c-.05-3.9-.08-7.45-.08-10.84s.03-7.01.08-10.96v-.07Zm-102.45-170.62c1.79,1.55,3.56,3.13,5.31,4.73-1.75-1.61-3.52-3.19-5.31-4.73Zm-36.76-26.21c2.07,1.2,4.12,2.43,6.15,3.68-2.03-1.26-4.08-2.49-6.15-3.68Zm-16.95-8.93c2.89,1.38,5.75,2.82,8.58,4.3-2.82-1.49-5.68-2.93-8.58-4.3Zm-11-4.9c3.71,1.55,7.38,3.18,11,4.9-3.61-1.73-7.28-3.36-11-4.9Zm-20.51-7.45c5.43,1.7,10.77,3.58,16.03,5.64-5.25-2.07-10.6-3.95-16.03-5.64Zm-28.65-7.05c2.19.4,4.37.83,6.54,1.28-2.17-.46-4.35-.89-6.54-1.28Zm291.22,604.35c-.93-1.67-1.85-3.35-2.77-5.03.91,1.68,1.83,3.36,2.76,5.03.29.53.59,1.06.89,1.59l-.88-1.59Zm-93.97-328.81h-.01c.04.74.08,1.47.12,2.21-.04-.74-.08-1.48-.11-2.21Zm-1.12-58l-1.39-11.24c.1.8.19,1.6.28,2.39.17,1.47.32,2.93.46,4.4.39,4.02.66,8.05.84,12.04v-.26c.04-2.48.08-4.95.14-7.42l-.33.09Zm20.19,7.62l-19.99.28v-.23c-.06,3.94-.09,7.54-.09,10.98s.03,6.92.08,10.78v-.2s20,.28,20,.28v-.02c-.05-3.9-.08-7.45-.08-10.84s.03-7.01.08-10.96v-.07Zm-102.45-170.62c1.79,1.55,3.56,3.13,5.31,4.73-1.75-1.61-3.52-3.19-5.31-4.73Zm-36.76-26.21c2.07,1.2,4.12,2.43,6.15,3.68-2.03-1.26-4.08-2.49-6.15-3.68Zm-16.95-8.93c2.89,1.38,5.75,2.82,8.58,4.3-2.82-1.49-5.68-2.93-8.58-4.3Zm-11-4.9c3.71,1.55,7.38,3.18,11,4.9-3.61-1.73-7.28-3.36-11-4.9Zm-20.51-7.45c5.43,1.7,10.77,3.58,16.03,5.64-5.25-2.07-10.6-3.95-16.03-5.64Zm-28.65-7.05c2.19.4,4.37.83,6.54,1.28-2.17-.46-4.35-.89-6.54-1.28Zm291.22,604.35c-.93-1.67-1.85-3.35-2.77-5.03.91,1.68,1.83,3.36,2.76,5.03.29.53.59,1.06.89,1.59l-.88-1.59Zm-93.98-328.81c.04.74.08,1.47.12,2.21-.04-.74-.08-1.48-.11-2.21h-.01Zm-.92-50.67c.04-2.48.08-4.95.14-7.42l-.33.09-1.39-11.24c.1.8.19,1.6.28,2.39.17,1.47.32,2.93.46,4.4.39,4.02.66,8.05.84,12.04v-.26Zm0,.34c-.05,3.94-.08,7.54-.08,10.98s.03,6.92.08,10.78v-.2s20,.28,20,.28v-.02c-.05-3.9-.08-7.45-.08-10.84s.03-7.01.08-10.96v-.07l-19.99.28v-.23Zm-77.14-165.94c-1.75-1.61-3.52-3.19-5.31-4.73,1.79,1.55,3.56,3.13,5.31,4.73Zm-35.92-27.26c-2.03-1.26-4.08-2.49-6.15-3.68,2.07,1.2,4.12,2.43,6.15,3.68Zm-14.52-8.31c-2.82-1.49-5.68-2.93-8.58-4.3,2.89,1.38,5.75,2.82,8.58,4.3Zm-8.58-4.3c-3.61-1.73-7.28-3.36-11-4.9,3.71,1.55,7.38,3.18,11,4.9Zm-15.48-6.71c-5.25-2.07-10.6-3.95-16.03-5.64,5.43,1.7,10.77,3.58,16.03,5.64Zm-38.14-11.41c-2.17-.46-4.35-.89-6.54-1.28,2.19.4,4.37.83,6.54,1.28Zm928.07,981.76l-1.85-7.19-7.42-.3c-85.13-3.49-168.1-21.37-246.6-53.15-12.67-5.13-25.37-10.69-37.79-16.54l-3.27-1.56c-63.4-30.28-122.2-69.48-174.77-116.53-60.12-53.82-110.71-116.5-150.44-186.41-1.27-2.23-2.53-4.47-3.77-6.71-2.11-3.8-4.19-7.64-6.24-11.5-1.25-2.34-2.48-4.69-3.7-7.05-.62-1.18-1.22-2.36-1.82-3.54-1.82-3.54-3.6-7.1-5.35-10.67-.59-1.19-1.17-2.38-1.74-3.57-.58-1.19-1.15-2.38-1.72-3.57-43.13-90.27-67.1-187-71.25-287.49l-.31-7.43-1.05-.27c.35-3.95.62-7.94.79-11.93v-.24s.01-.36.01-.36c-.05-3.9-.08-7.45-.08-10.84s.03-7.01.08-10.96v-.6s-.01-.03-.01-.03c-.29-6.89-.87-13.88-1.73-20.77-.46-3.76-1.01-7.5-1.65-11.22-.08-.53-.17-1.06-.27-1.58-.63-3.59-1.33-7.17-2.12-10.72-.14-.64-.28-1.29-.43-1.93-.07-.33-.15-.66-.23-.99-.2-.87-.41-1.74-.62-2.61-.15-.62-.3-1.24-.46-1.86-.15-.59-.3-1.19-.45-1.78-.26-1-.52-2-.8-3-.22-.8-.44-1.61-.67-2.41-.2-.72-.41-1.44-.62-2.16-.16-.58-.33-1.15-.51-1.73-.25-.85-.51-1.71-.78-2.56-.79-2.57-1.62-5.11-2.5-7.64-.51-1.49-1.04-2.97-1.58-4.44-2.34-6.45-4.95-12.8-7.81-19.04-.34-.76-.69-1.52-1.05-2.27-.99-2.13-2.02-4.24-3.07-6.33-.33-.67-.67-1.33-1.01-1.99-.52-1.04-1.06-2.06-1.6-3.08-.75-1.41-1.51-2.81-2.28-4.21-.07-.14-.15-.27-.22-.4-.7-1.26-1.41-2.51-2.13-3.75-1.03-1.79-2.08-3.57-3.16-5.33-.39-.64-.78-1.28-1.17-1.92-.32-.52-.64-1.03-.97-1.54-.41-.66-.83-1.31-1.25-1.97-.3-.46-.6-.93-.9-1.38-.98-1.5-1.97-2.99-2.98-4.47-2.12-3.11-4.31-6.18-6.56-9.2-.43-.57-.86-1.14-1.29-1.7-1.08-1.43-2.18-2.85-3.3-4.25-.55-.71-1.12-1.41-1.68-2.1-.53-.66-1.06-1.3-1.59-1.95-.71-.86-1.43-1.71-2.14-2.56-.42-.49-.83-.97-1.24-1.44-1.25-1.45-2.51-2.89-3.79-4.31-.51-.57-1.03-1.14-1.55-1.7-2.51-2.75-5.09-5.44-7.73-8.08-2.64-2.64-5.33-5.22-8.08-7.73-.56-.52-1.13-1.04-1.7-1.55-1.42-1.28-2.86-2.54-4.31-3.79-.47-.41-.95-.82-1.44-1.24-.85-.71-1.7-1.43-2.56-2.14-.65-.53-1.29-1.06-1.95-1.59-.69-.56-1.39-1.13-2.1-1.68-1.4-1.12-2.82-2.22-4.25-3.3-.56-.43-1.13-.86-1.7-1.29-3.02-2.25-6.09-4.44-9.2-6.56-1.48-1.01-2.97-2-4.47-2.98-.45-.3-.92-.6-1.38-.9-.66-.42-1.31-.84-1.97-1.25-.51-.33-1.02-.65-1.54-.97-.64-.39-1.28-.78-1.92-1.17-1.76-1.08-3.54-2.13-5.33-3.16-1.24-.72-2.49-1.43-3.75-2.13-.13-.07-.26-.15-.4-.22-1.4-.77-2.8-1.53-4.21-2.28-1.02-.54-2.04-1.08-3.08-1.6-.66-.34-1.32-.68-1.99-1.01-2.09-1.05-4.2-2.08-6.33-3.07-.75-.36-1.51-.71-2.27-1.05-6.07-2.78-12.24-5.32-18.51-7.62-1.65-.61-3.31-1.2-4.97-1.77-1.91-.67-3.84-1.3-5.78-1.92-.62-.2-1.24-.39-1.86-.58-.85-.27-1.71-.53-2.56-.78-1.29-.39-2.58-.77-3.88-1.13-.72-.21-1.45-.41-2.17-.6-.59-.17-1.18-.33-1.77-.48-.63-.17-1.25-.33-1.88-.49-1.07-.28-2.16-.55-3.24-.81-.87-.21-1.74-.42-2.61-.62-4.38-1.02-8.8-1.93-13.24-2.71-.42-.08-.83-.15-1.25-.22-.24-.04-.49-.08-.73-.12-3.72-.64-7.46-1.19-11.22-1.65l-8.74-1.08-2.18,8.53c-.94,3.66-1.85,7.33-2.74,11.01-.02.08-.05.17-.06.26-7.75,31.85-13.93,64.13-18.53,96.69-6.65,47.08-10,94.75-10,142.6s3.35,95.52,10,142.6c5.14,36.41,12.27,72.46,21.33,107.97l.7,2.72c21.21,82.16,52.88,161.5,94.11,235.84,7.04,12.69,14.5,25.48,22.17,38.01,38.63,63.01,84.35,121.95,135.89,175.2,59.28,61.26,126.12,114.87,198.66,159.35,7.36,4.51,14.81,8.94,22.13,13.18,78.84,45.61,163.45,80.28,251.51,103.05,82.35,21.29,167.64,32.08,253.5,32.08h10v-10c0-85.68-10.75-170.81-31.96-253.04Zm-226.54,211.6c-86.29-22.32-169.23-56.3-246.5-101.01-7.18-4.15-14.47-8.49-21.68-12.92-71.12-43.59-136.64-96.14-194.75-156.2-50.53-52.2-95.35-109.98-133.2-171.74-7.53-12.28-14.84-24.82-21.74-37.26-40.41-72.86-71.44-150.62-92.23-231.11l-.69-2.7c-20.38-79.79-30.71-162.43-30.71-245.62s9.6-159.83,28.53-236.92c.82.13,1.64.27,2.46.41.81.14,1.63.28,2.44.43,2.19.4,4.37.83,6.54,1.28.27.06.54.12.8.17,1.6.34,3.18.7,4.77,1.07.79.19,1.59.38,2.39.58,1.46.36,2.91.73,4.35,1.11.14.04.27.08.4.11.79.22,1.58.43,2.37.65,2.31.64,4.6,1.32,6.88,2.03.05.02.1.03.15.05,5.43,1.7,10.77,3.58,16.03,5.64.75.29,1.5.59,2.24.89.75.31,1.5.61,2.24.92,3.71,1.55,7.38,3.18,11,4.9,2.89,1.38,5.75,2.82,8.58,4.3.7.38,1.41.75,2.11,1.13s1.4.76,2.1,1.15c.7.38,1.39.77,2.09,1.16.69.4,1.38.79,2.07,1.19,2.07,1.2,4.12,2.43,6.15,3.68.67.42,1.35.84,2.02,1.27,1.34.85,2.67,1.71,4,2.59.66.44,1.32.88,1.98,1.32.65.45,1.31.9,1.96,1.35,1.17.8,2.34,1.62,3.49,2.45.13.1.27.2.4.29.64.46,1.28.93,1.92,1.4.64.47,1.27.94,1.91,1.42,1.27.95,2.53,1.91,3.77,2.89.62.49,1.24.98,1.86,1.47,1.23.99,2.45,1.98,3.66,2.98,1.22,1.03,2.44,2.06,3.64,3.1,1.79,1.55,3.56,3.13,5.31,4.73,1.16,1.08,2.32,2.16,3.46,3.25.57.55,1.14,1.09,1.7,1.65.57.55,1.13,1.1,1.69,1.66.56.55,1.12,1.11,1.67,1.68.56.57,1.11,1.13,1.66,1.7l1.44,1.5c1.7,1.8,3.37,3.61,5.01,5.45.53.59,1.05,1.19,1.57,1.78,1.57,1.79,3.1,3.6,4.61,5.43.5.61,1,1.22,1.5,1.84.51.62,1,1.24,1.48,1.86.98,1.24,1.95,2.49,2.91,3.75.57.75,1.13,1.5,1.69,2.25.38.52.76,1.04,1.15,1.57.48.66.95,1.32,1.43,1.99.44.62.89,1.25,1.33,1.88.45.65.9,1.31,1.35,1.96.45.65.89,1.31,1.33,1.97.44.67.88,1.33,1.32,1.99.8,1.22,1.59,2.45,2.37,3.69.06.11.13.22.2.32.8,1.28,1.59,2.57,2.37,3.86.45.76.89,1.51,1.34,2.27.81,1.38,1.6,2.76,2.37,4.15.41.74.83,1.49,1.23,2.23.74,1.35,1.47,2.72,2.18,4.09.02.04.04.09.07.13.72,1.38,1.42,2.76,2.1,4.15.71,1.43,1.41,2.88,2.09,4.33.34.72.68,1.45,1.01,2.18.33.73.66,1.46.99,2.19.33.74.65,1.47.97,2.21.3.69.59,1.38.88,2.07.34.79.67,1.58.99,2.38.31.74.61,1.49.91,2.24s.59,1.5.88,2.25c.29.75.58,1.51.86,2.26.29.76.57,1.52.84,2.28.24.67.48,1.33.72,2,.3.86.6,1.72.89,2.58.53,1.53,1.04,3.08,1.52,4.63.27.85.54,1.71.8,2.56.22.7.43,1.4.63,2.1.23.78.46,1.57.68,2.35.23.78.44,1.56.66,2.34.68,2.52,1.33,5.06,1.95,7.62.15.64.3,1.29.45,1.93.32,1.43.64,2.86.94,4.29.12.56.24,1.12.35,1.68,1.22,5.98,2.21,12.05,2.98,18.19.01.11.03.21.04.32.1.8.19,1.6.28,2.39.17,1.47.32,2.93.46,4.4.39,4.02.66,8.05.84,12.04v.08c-.05,3.94-.08,7.54-.08,10.98s.03,6.92.08,10.78v.38c.1,6.89.3,13.86.58,20.73.1,2.48.22,4.97.34,7.45h0c.04.75.08,1.48.12,2.22.07,1.38.15,2.77.23,4.16.32,5.33.69,10.64,1.11,15.94.11,1.32.22,2.64.33,3.96.13,1.6.27,3.19.42,4.79.1,1.12.21,2.25.32,3.37.09,1.02.19,2.03.3,3.04.42,4.24.87,8.48,1.37,12.7.14,1.21.28,2.42.43,3.63,1.4,11.49,3.06,22.92,4.97,34.29.5,2.96,1.01,5.91,1.54,8.86,1.43,7.89,2.98,15.74,4.65,23.55.15.72.31,1.44.46,2.16.21.97.43,1.93.64,2.9.41,1.85.82,3.69,1.24,5.52.29,1.26.58,2.52.88,3.78.36,1.54.73,3.09,1.1,4.63.37,1.55.75,3.09,1.13,4.63.41,1.66.82,3.31,1.25,4.96.36,1.43.73,2.85,1.1,4.27,1.07,4.11,2.18,8.21,3.33,12.3.41,1.49.84,2.98,1.26,4.47.43,1.49.86,2.98,1.3,4.47.43,1.49.87,2.98,1.32,4.46.44,1.48.89,2.97,1.35,4.45.45,1.48.91,2.96,1.38,4.44.46,1.48.93,2.96,1.4,4.44.44,1.36.88,2.72,1.32,4.08.08.24.16.47.23.7.45,1.36.89,2.71,1.35,4.06.42,1.28.85,2.56,1.28,3.83,1.18,3.46,2.38,6.91,3.61,10.35.41,1.14.81,2.28,1.23,3.42,1.05,2.92,2.13,5.83,3.22,8.74.55,1.46,1.1,2.91,1.66,4.37.55,1.45,1.11,2.9,1.68,4.35.57,1.45,1.14,2.9,1.71,4.34.57,1.45,1.15,2.89,1.74,4.34.58,1.44,1.17,2.88,1.76,4.32.6,1.45,1.19,2.89,1.8,4.32.6,1.44,1.2,2.88,1.82,4.31.77,1.81,1.54,3.62,2.33,5.42.46,1.06.92,2.12,1.39,3.18,3.15,7.14,6.41,14.25,9.79,21.32,4.12,8.64,8.45,17.27,12.92,25.79,1.79,3.41,3.61,6.8,5.44,10.16.91,1.68,1.83,3.36,2.76,5.03.29.53.59,1.06.89,1.59,1.79,3.21,3.6,6.41,5.44,9.59,40.42,70.07,91.52,132.98,152.03,187.14,52.41,46.91,110.85,86.22,173.8,116.93l5.69,2.75c13.83,6.61,28.02,12.86,42.18,18.59,78.34,31.71,161,49.95,245.82,54.25,18.78,75.15,28.68,152.72,29.46,230.84-80.78-.81-160.94-11.36-238.45-31.39Zm-708.07-1194.64c2.19.4,4.37.83,6.54,1.28-2.17-.46-4.35-.89-6.54-1.28Zm28.65,7.05c5.43,1.7,10.77,3.58,16.03,5.64-5.25-2.07-10.6-3.95-16.03-5.64Zm20.51,7.45c3.71,1.55,7.38,3.18,11,4.9-3.61-1.73-7.28-3.36-11-4.9Zm11,4.9c2.89,1.38,5.75,2.82,8.58,4.3-2.82-1.49-5.68-2.93-8.58-4.3Zm16.95,8.93c2.07,1.2,4.12,2.43,6.15,3.68-2.03-1.26-4.08-2.49-6.15-3.68Zm36.76,26.21c1.79,1.55,3.56,3.13,5.31,4.73-1.75-1.61-3.52-3.19-5.31-4.73Zm102.45,170.62l-19.99.28v-.23c-.06,3.94-.09,7.54-.09,10.98s.03,6.92.08,10.78v-.2s20,.28,20,.28v-.02c-.05-3.9-.08-7.45-.08-10.84s.03-7.01.08-10.96v-.07Zm-20.19-7.62l-1.39-11.24c.1.8.19,1.6.28,2.39.17,1.47.32,2.93.46,4.4.39,4.02.66,8.05.84,12.04v-.26c.04-2.48.08-4.95.14-7.42l-.33.09Zm1.12,58h-.01c.04.74.08,1.47.12,2.21-.04-.74-.08-1.48-.11-2.21Zm93.97,328.81c-.93-1.67-1.85-3.35-2.77-5.03.91,1.68,1.83,3.36,2.76,5.03.29.53.59,1.06.89,1.59l-.88-1.59Zm-291.22-604.35c2.19.4,4.37.83,6.54,1.28-2.17-.46-4.35-.89-6.54-1.28Zm28.65,7.05c5.43,1.7,10.77,3.58,16.03,5.64-5.25-2.07-10.6-3.95-16.03-5.64Zm20.51,7.45c3.71,1.55,7.38,3.18,11,4.9-3.61-1.73-7.28-3.36-11-4.9Zm11,4.9c2.89,1.38,5.75,2.82,8.58,4.3-2.82-1.49-5.68-2.93-8.58-4.3Zm16.95,8.93c2.07,1.2,4.12,2.43,6.15,3.68-2.03-1.26-4.08-2.49-6.15-3.68Zm36.76,26.21c1.79,1.55,3.56,3.13,5.31,4.73-1.75-1.61-3.52-3.19-5.31-4.73Zm102.45,170.62l-19.99.28v-.23c-.06,3.94-.09,7.54-.09,10.98s.03,6.92.08,10.78v-.2s20,.28,20,.28v-.02c-.05-3.9-.08-7.45-.08-10.84s.03-7.01.08-10.96v-.07Zm-20.19-7.62l-1.39-11.24c.1.8.19,1.6.28,2.39.17,1.47.32,2.93.46,4.4.39,4.02.66,8.05.84,12.04v-.26c.04-2.48.08-4.95.14-7.42l-.33.09Zm1.12,58h-.01c.04.74.08,1.47.12,2.21-.04-.74-.08-1.48-.11-2.21Zm93.97,328.81c-.93-1.67-1.85-3.35-2.77-5.03.91,1.68,1.83,3.36,2.76,5.03.29.53.59,1.06.89,1.59l-.88-1.59Zm-291.22-604.35c2.19.4,4.37.83,6.54,1.28-2.17-.46-4.35-.89-6.54-1.28Zm28.65,7.05c5.43,1.7,10.77,3.58,16.03,5.64-5.25-2.07-10.6-3.95-16.03-5.64Zm20.51,7.45c3.71,1.55,7.38,3.18,11,4.9-3.61-1.73-7.28-3.36-11-4.9Zm11,4.9c2.89,1.38,5.75,2.82,8.58,4.3-2.82-1.49-5.68-2.93-8.58-4.3Zm16.95,8.93c2.07,1.2,4.12,2.43,6.15,3.68-2.03-1.26-4.08-2.49-6.15-3.68Zm36.76,26.21c1.79,1.55,3.56,3.13,5.31,4.73-1.75-1.61-3.52-3.19-5.31-4.73Zm102.45,170.62l-19.99.28v-.23c-.06,3.94-.09,7.54-.09,10.98s.03,6.92.08,10.78v-.2s20,.28,20,.28v-.02c-.05-3.9-.08-7.45-.08-10.84s.03-7.01.08-10.96v-.07Zm-20.19-7.62l-1.39-11.24c.1.8.19,1.6.28,2.39.17,1.47.32,2.93.46,4.4.39,4.02.66,8.05.84,12.04v-.26c.04-2.48.08-4.95.14-7.42l-.33.09Zm1.12,58h-.01c.04.74.08,1.47.12,2.21-.04-.74-.08-1.48-.11-2.21Zm93.97,328.81c-.93-1.67-1.85-3.35-2.77-5.03.91,1.68,1.83,3.36,2.76,5.03.29.53.59,1.06.89,1.59l-.88-1.59Zm-291.22-604.35c2.19.4,4.37.83,6.54,1.28-2.17-.46-4.35-.89-6.54-1.28Zm28.65,7.05c5.43,1.7,10.77,3.58,16.03,5.64-5.25-2.07-10.6-3.95-16.03-5.64Zm20.51,7.45c3.71,1.55,7.38,3.18,11,4.9-3.61-1.73-7.28-3.36-11-4.9Zm11,4.9c2.89,1.38,5.75,2.82,8.58,4.3-2.82-1.49-5.68-2.93-8.58-4.3Zm16.95,8.93c2.07,1.2,4.12,2.43,6.15,3.68-2.03-1.26-4.08-2.49-6.15-3.68Zm36.76,26.21c1.79,1.55,3.56,3.13,5.31,4.73-1.75-1.61-3.52-3.19-5.31-4.73Zm102.45,170.62l-19.99.28v-.23c-.06,3.94-.09,7.54-.09,10.98s.03,6.92.08,10.78v-.2s20,.28,20,.28v-.02c-.05-3.9-.08-7.45-.08-10.84s.03-7.01.08-10.96v-.07Zm-20.19-7.62l-1.39-11.24c.1.8.19,1.6.28,2.39.17,1.47.32,2.93.46,4.4.39,4.02.66,8.05.84,12.04v-.26c.04-2.48.08-4.95.14-7.42l-.33.09Zm1.12,58h-.01c.04.74.08,1.47.12,2.21-.04-.74-.08-1.48-.11-2.21Zm93.97,328.81c-.93-1.67-1.85-3.35-2.77-5.03.91,1.68,1.83,3.36,2.76,5.03.29.53.59,1.06.89,1.59l-.88-1.59Zm-291.22-604.35c2.19.4,4.37.83,6.54,1.28-2.17-.46-4.35-.89-6.54-1.28Zm28.65,7.05c5.43,1.7,10.77,3.58,16.03,5.64-5.25-2.07-10.6-3.95-16.03-5.64Zm20.51,7.45c3.71,1.55,7.38,3.18,11,4.9-3.61-1.73-7.28-3.36-11-4.9Zm11,4.9c2.89,1.38,5.75,2.82,8.58,4.3-2.82-1.49-5.68-2.93-8.58-4.3Zm16.95,8.93c2.07,1.2,4.12,2.43,6.15,3.68-2.03-1.26-4.08-2.49-6.15-3.68Zm36.76,26.21c1.79,1.55,3.56,3.13,5.31,4.73-1.75-1.61-3.52-3.19-5.31-4.73Zm102.45,170.62l-19.99.28v-.23c-.06,3.94-.09,7.54-.09,10.98s.03,6.92.08,10.78v-.2s20,.28,20,.28v-.02c-.05-3.9-.08-7.45-.08-10.84s.03-7.01.08-10.96v-.07Zm-20.19-7.62l-1.39-11.24c.1.8.19,1.6.28,2.39.17,1.47.32,2.93.46,4.4.39,4.02.66,8.05.84,12.04v-.26c.04-2.48.08-4.95.14-7.42l-.33.09Zm1.12,58h-.01c.04.74.08,1.47.12,2.21-.04-.74-.08-1.48-.11-2.21Zm93.97,328.81c-.93-1.67-1.85-3.35-2.77-5.03.91,1.68,1.83,3.36,2.76,5.03.29.53.59,1.06.89,1.59l-.88-1.59Zm-291.22-604.35c2.19.4,4.37.83,6.54,1.28-2.17-.46-4.35-.89-6.54-1.28Zm28.65,7.05c5.43,1.7,10.77,3.58,16.03,5.64-5.25-2.07-10.6-3.95-16.03-5.64Zm20.51,7.45c3.71,1.55,7.38,3.18,11,4.9-3.61-1.73-7.28-3.36-11-4.9Zm11,4.9c2.89,1.38,5.75,2.82,8.58,4.3-2.82-1.49-5.68-2.93-8.58-4.3Zm16.95,8.93c2.07,1.2,4.12,2.43,6.15,3.68-2.03-1.26-4.08-2.49-6.15-3.68Zm36.76,26.21c1.79,1.55,3.56,3.13,5.31,4.73-1.75-1.61-3.52-3.19-5.31-4.73Zm102.45,170.62l-19.99.28v-.23c-.06,3.94-.09,7.54-.09,10.98s.03,6.92.08,10.78v-.2s20,.28,20,.28v-.02c-.05-3.9-.08-7.45-.08-10.84s.03-7.01.08-10.96v-.07Zm-20.19-7.62l-1.39-11.24c.1.8.19,1.6.28,2.39.17,1.47.32,2.93.46,4.4.39,4.02.66,8.05.84,12.04v-.26c.04-2.48.08-4.95.14-7.42l-.33.09Zm1.12,58h-.01c.04.74.08,1.47.12,2.21-.04-.74-.08-1.48-.11-2.21Zm93.97,328.81c-.93-1.67-1.85-3.35-2.77-5.03.91,1.68,1.83,3.36,2.76,5.03.29.53.59,1.06.89,1.59l-.88-1.59Z"/>
      <path class="cls-1" d="m996.47,775.71c-.81.06-1.62.13-2.43.2-.99.08-1.97.17-2.95.27-1.97.19-3.93.41-5.88.65l-8.74,1.09-2.46-9.66c-.11-.43-.22-.86-.33-1.29l-2.16-8.33c3.72-.64,7.47-1.19,11.23-1.65l8.74-1.08,2.18,8.53c.94,3.66,1.85,7.33,2.74,11.01.02.08.05.17.06.26Z"/>
      <path class="cls-1" d="m1058.47,758.64l-4.93,19.28-8.75-1.09c-3.73-.46-7.49-.83-11.26-1.12.01-.09.04-.18.06-.26.89-3.68,1.8-7.35,2.74-11.01l2.18-8.53,8.74,1.08c3.76.46,7.5,1.01,11.22,1.65Z"/>
      <path class="cls-1" d="m898.86,525.87c-1.24-2.23-2.49-4.46-3.75-6.7-5.92-10.48-12.1-20.98-18.42-31.31-38.63-63.02-84.36-121.98-135.92-175.24-59.26-61.24-126.09-114.83-198.63-159.31-7.35-4.5-14.79-8.93-22.13-13.18-79.07-45.74-163.92-80.47-252.19-103.22C185.68,15.73,100.62,5,15,5H5v10c0,85.79,10.78,171.01,32.03,253.29l1.85,7.18,7.41.31c84.99,3.57,167.82,21.48,246.19,53.25,13.81,5.59,27.52,11.64,40.75,17.97,63.4,30.28,122.2,69.48,174.77,116.53,60.22,53.91,110.85,116.68,150.59,186.69,1.27,2.23,2.52,4.46,3.76,6.7l6.26,11.29,6.94-6.57,2.43-2.31c48.08-45.59,104.97-80.96,166.62-103.87,2.41-.9,4.84-1.78,7.27-2.64,2.43-.86,4.87-1.7,7.32-2.52,2.44-.83,4.9-1.63,7.36-2.41,8.6-2.74,17.29-5.24,26.05-7.49l12.53-3.22-6.27-11.31Zm-24.73-1.16c-.84.24-1.69.48-2.53.73-2.32.68-4.64,1.37-6.95,2.09-.87.26-1.73.53-2.59.81-1.45.45-2.89.91-4.33,1.38-1.06.34-2.13.69-3.19,1.05-.64.21-1.28.42-1.93.64-1.12.37-2.25.76-3.37,1.15-.61.2-1.21.42-1.83.63-1.08.37-2.17.76-3.25,1.14-2.65.95-5.29,1.91-7.93,2.9-1.95.73-3.89,1.47-5.83,2.23-1.38.54-2.76,1.08-4.14,1.63-1.2.48-2.4.96-3.6,1.45-8.7,3.56-17.3,7.35-25.8,11.38-1.21.57-2.42,1.15-3.63,1.74-.88.43-1.77.86-2.65,1.29-1.09.54-2.17,1.07-3.25,1.61-1.08.54-2.16,1.09-3.24,1.64-2.35,1.19-4.69,2.41-7.03,3.65-1.94,1.02-3.87,2.06-5.8,3.11-1.06.58-2.12,1.16-3.18,1.75-2.11,1.17-4.22,2.36-6.32,3.56-3.09,1.77-6.16,3.58-9.21,5.41-.13.08-.25.15-.38.23-2,1.21-4,2.43-5.98,3.66-1.29.8-2.57,1.6-3.85,2.41-1.92,1.22-3.82,2.44-5.73,3.68-1.9,1.24-3.79,2.5-5.67,3.76-2.01,1.35-4.01,2.72-6,4.09-1,.69-1.99,1.39-2.98,2.08-1.99,1.39-3.96,2.8-5.92,4.22-1.96,1.43-3.92,2.86-5.86,4.31-2.92,2.18-5.81,4.38-8.68,6.62-.96.74-1.91,1.49-2.86,2.25-.95.75-1.9,1.51-2.85,2.27-.94.76-1.89,1.52-2.83,2.29-2.82,2.3-5.62,4.63-8.4,6.99-.92.79-1.84,1.58-2.76,2.37-.87.75-1.73,1.5-2.59,2.25-.74.64-1.47,1.29-2.2,1.94-1.15,1.01-2.29,2.03-3.42,3.05-40.45-70.21-91.62-133.25-152.25-187.52-53.99-48.32-114.38-88.58-179.48-119.67-13.6-6.51-27.68-12.72-41.86-18.47-78.22-31.7-160.74-49.97-245.42-54.34C35.75,180.94,25.83,103.28,25.05,25.05c80.54.81,160.48,11.3,237.77,31.22,86.51,22.3,169.67,56.34,247.18,101.18,7.19,4.16,14.49,8.5,21.68,12.92,71.11,43.59,136.63,96.13,194.72,156.16,50.54,52.21,95.37,110.01,133.23,171.78,5.28,8.62,10.46,17.37,15.46,26.12-.32.09-.64.18-.96.28Z"/>
      <path class="cls-1" d="m2015,5c-85.86,0-171.14,10.79-253.49,32.08-88.04,22.75-172.66,57.42-251.51,103.05-7.35,4.25-14.79,8.68-22.14,13.18-72.58,44.49-139.47,98.15-198.81,159.5-51.46,53.18-97.13,112.08-135.74,175.06-6.32,10.32-12.5,20.82-18.41,31.3-1.27,2.23-2.52,4.47-3.76,6.7l-6.27,11.31,12.53,3.22c44.93,11.56,88.03,29.58,127.86,53.29,2.21,1.31,4.41,2.65,6.61,4,1.09.67,2.19,1.35,3.28,2.04,2.18,1.37,4.35,2.75,6.51,4.16,2.16,1.4,4.31,2.82,6.45,4.26,1.07.72,2.14,1.44,3.2,2.17,3.2,2.18,6.36,4.4,9.51,6.66,3.14,2.25,6.25,4.55,9.34,6.88.01,0,.01.01.01.01,3.09,2.33,6.15,4.7,9.18,7.1h.01c6.07,4.82,12.03,9.78,17.87,14.89,4.87,4.25,9.66,8.61,14.37,13.06h.01s9.35,8.86,9.35,8.86l6.25-11.27c1.24-2.24,2.5-4.47,3.77-6.7,39.72-69.86,90.27-132.5,150.36-186.28,52-46.53,110.1-85.41,172.73-115.56l2.05-.98c13.7-6.53,27.56-12.64,41.21-18.15,78.42-31.73,161.31-49.59,246.38-53.09l7.42-.3,1.85-7.19c21.25-82.28,32.02-167.49,32.02-253.26V5h-10Zm-39.57,251.11c-84.76,4.31-167.34,22.53-245.59,54.19-13.34,5.38-26.89,11.32-40.29,17.67l-2.06.98c-65.12,31.1-125.51,71.37-179.49,119.68-60.5,54.15-111.6,117.05-152.02,187.13-1.03-.93-2.06-1.85-3.1-2.76-.83-.74-1.66-1.47-2.5-2.2-3.6-3.15-7.24-6.24-10.93-9.28-.93-.77-1.87-1.54-2.81-2.3-1.03-.84-2.06-1.67-3.1-2.51-.85-.68-1.71-1.36-2.57-2.03-6.71-5.31-13.56-10.44-20.53-15.39-.91-.66-1.82-1.3-2.74-1.94-.99-.7-1.98-1.39-2.97-2.07-3.98-2.75-7.99-5.44-12.04-8.07-1.01-.66-2.03-1.32-3.04-1.97-3.09-1.97-6.2-3.91-9.32-5.81-.89-.55-1.79-1.09-2.68-1.63-7.34-4.42-14.79-8.65-22.34-12.69-.82-.44-1.64-.88-2.46-1.31-1.34-.71-2.69-1.41-4.03-2.11-1.04-.54-2.08-1.07-3.13-1.6-1.2-.61-2.4-1.22-3.61-1.82-.95-.47-1.91-.95-2.86-1.41-4.33-2.13-8.69-4.19-13.08-6.19-1.1-.5-2.19-1-3.29-1.49-.98-.44-1.95-.87-2.93-1.3-1.23-.54-2.46-1.08-3.7-1.61-1.07-.46-2.13-.91-3.21-1.37-.08-.03-.17-.07-.26-.11-1.06-.44-2.13-.89-3.19-1.33-1.12-.46-2.23-.92-3.35-1.37-1.2-.49-2.4-.97-3.6-1.45-1.04-.41-2.08-.82-3.12-1.22-1.58-.61-3.15-1.22-4.73-1.81-.84-.32-1.68-.64-2.53-.95-.99-.37-1.99-.73-2.98-1.1-1.11-.4-2.21-.8-3.32-1.19-.71-.25-1.41-.5-2.11-.75-.95-.34-1.9-.67-2.85-.99-.63-.22-1.25-.43-1.88-.64-1.07-.37-2.15-.73-3.24-1.09-1.53-.51-3.06-1.02-4.6-1.51-.83-.27-1.65-.53-2.47-.79-1.15-.36-2.3-.72-3.46-1.08-2.3-.71-4.61-1.41-6.93-2.08-.92-.27-1.85-.54-2.77-.81-.24-.06-.47-.13-.71-.2,5-8.75,10.17-17.49,15.46-26.11,37.84-61.74,82.61-119.47,133.06-171.61,58.17-60.13,123.74-112.73,194.89-156.35,7.19-4.41,14.49-8.75,21.69-12.91,77.29-44.73,160.22-78.71,246.5-101.01,77.51-20.03,157.67-30.58,238.44-31.39-.78,78.21-10.7,155.85-29.52,231.06Z"/>
    </g>
  </g>
</svg>