<?xml version="1.0" encoding="UTF-8"?>
<svg id="Layer_2" data-name="Layer 2" xmlns="http://www.w3.org/2000/svg" viewBox="0 0 1520 1520">
  <defs>
    <style>
      .cls-1 {
        opacity: .4;
      }

      .cls-2 {
        fill: #231f20;
        stroke-width: 0px;
      }
    </style>
  </defs>
  <g id="Layer_1-2" data-name="Layer 1">
    <g>
      <g class="cls-1">
        <path class="cls-2" d="m1259.56,1520H260.44c-69.57,0-134.97-27.09-184.16-76.28C27.09,1394.53,0,1329.12,0,1259.56V260.44C0,190.88,27.09,125.47,76.28,76.28,125.47,27.09,190.88,0,260.44,0h999.11c69.57,0,134.97,27.09,184.16,76.28,49.19,49.19,76.28,114.59,76.28,184.16v999.11c0,69.57-27.09,134.97-76.28,184.16-49.19,49.19-114.59,76.28-184.16,76.28ZM260.44,20C127.86,20,20,127.86,20,260.44v999.11c0,132.58,107.86,240.44,240.44,240.44h999.11c132.58,0,240.44-107.86,240.44-240.44V260.44c0-132.58-107.86-240.44-240.44-240.44H260.44Z"/>
      </g>
      <g class="cls-1">
        <path class="cls-2" d="m198.66,1169.63c7.13-9.98,17.11-22.4,31.36-36.66,17.51-17.51,34.42-26.27,49.89-27.08,14.05-1.02,28.51,4.48,40.73,16.7,12.42,12.42,18.53,25.86,18.74,39.91.61,19.35-9.57,39.71-26.88,57.02-5.29,5.29-10.39,9.98-15.48,13.03l54.98,54.98-17.72,17.72-135.63-135.63Zm83.9,48.47c4.89-2.85,10.18-7.33,16.09-13.24,21.38-21.38,24.03-44.8,5.09-63.74-18.12-18.12-39.71-14.05-59.26,5.5-7.74,7.74-13.03,14.25-15.27,18.12l53.35,53.35Z"/>
        <path class="cls-2" d="m296.41,1053.96l17.92-17.92,144.59,144.59-17.92,17.92-144.59-144.59Z"/>
        <path class="cls-2" d="m543.63,1095.91l-13.85-11-.61.61c2.24,13.24-1.42,30.75-15.48,44.8-19.96,19.96-44.19,16.09-58.45,1.83-23.83-23.83-15.68-58.04,22.6-95.92l-2.04-2.04c-8.15-8.15-25.05-20.57-45.21-.41-9.16,9.16-15.88,21.58-18.33,32.99l-15.88-7.74c2.85-13.44,11.2-28.71,23.62-41.13,30.14-30.14,58.04-16.9,77.79,2.85l36.86,36.86c8.55,8.55,17.31,16.5,25.25,21.99l-16.29,16.29Zm-52.95-47.65c-19.96,19.14-38.69,44.8-19.55,63.94,11.61,11.61,24.84,9.37,34.01.21,12.83-12.83,12.83-29.12,7.33-40.32-1.22-2.44-2.85-4.89-4.68-6.72l-17.11-17.11Z"/>
        <path class="cls-2" d="m653.8,978.41c-2.24,7.13-9.37,20.77-22.6,34.01-29.73,29.73-69.24,28.92-99.38-1.22-30.34-30.34-31.56-73.11.61-105.28,10.59-10.59,22.6-17.31,29.94-19.75l9.77,17.92c-6.72,1.83-15.68,6.31-25.46,16.09-22.6,22.6-18.12,51.52,2.44,72.09,22.81,22.81,51.52,22.2,71.07,2.65,10.18-10.18,14.26-19.55,17.11-26.88l16.49,10.39Z"/>
        <path class="cls-2" d="m641.18,906.32c24.64,23.83,50.1,18.33,68.02.41,12.83-12.83,18.33-22.81,22.2-32.38l15.88,9.77c-3.46,9.16-11,23.21-26.68,38.9-30.34,30.34-68.42,28.51-98.16-1.22s-35.64-70.66-6.92-99.38c32.18-32.18,69.04-12.42,87.16,5.7,3.67,3.67,6.11,6.92,7.74,8.96l-69.24,69.24Zm39.71-65.37c-11.2-11.61-33.8-24.44-53.96-4.28-18.12,18.12-9.37,42.77,1.63,56.61l52.34-52.34Z"/>
        <path class="cls-2" d="m634.66,715.71l17.92-17.92,61.5,61.5.41-.41c-2.24-7.94-2.24-16.9.2-25.46,2.24-8.35,6.52-16.7,13.24-23.42,13.24-13.24,42.56-26.27,76.57,7.74l58.65,58.65-17.92,17.92-56.61-56.61c-15.88-15.88-35.23-23.42-52.13-6.52-11.61,11.61-12.63,28.92-6.11,41.95,1.42,3.46,3.87,6.31,7.33,9.77l59.46,59.46-17.92,17.92-144.59-144.59Z"/>
        <path class="cls-2" d="m931.37,607.98c36.45,36.45,27.08,77.59,3.26,101.41-26.68,26.68-66.79,27.7-97.95-3.46-32.99-32.99-30.75-73.92-3.46-101.21,28.31-28.31,68.02-26.88,98.16,3.26Zm-77.18,79.22c21.59,21.59,50.3,25.46,67.81,7.94s13.85-46.02-8.35-68.22c-16.7-16.7-46.23-29.53-67.41-8.35-21.18,21.18-10.79,49.89,7.94,68.63Z"/>
        <path class="cls-2" d="m859.48,490.88l17.92-17.92,144.59,144.59-17.92,17.92-144.59-144.59Z"/>
        <path class="cls-2" d="m992.67,357.7l119.13,119.13c8.76,8.76,18.94,18.53,26.27,24.64l-16.09,16.09-17.92-16.29-.41.41c5.5,16.5,1.83,36.86-14.26,52.95-23.83,23.83-62.31,21.99-92.25-7.94-32.99-32.58-32.79-73.11-8.76-97.14,15.07-15.07,32.38-18.12,44.8-14.66l.41-.41-58.85-58.85,17.92-17.92Zm68.22,104.06c-2.24-2.24-5.5-5.09-8.35-6.72-14.05-8.76-33.19-8.35-46.63,5.09-18.53,18.53-13.24,45.82,8.55,67.61,19.96,19.96,46.23,26.68,65.57,7.33,12.01-12.01,15.07-30.95,4.89-47.65-1.83-3.05-4.07-5.7-6.92-8.55l-17.11-17.11Z"/>
        <path class="cls-2" d="m1130.94,416.55c24.64,23.83,50.1,18.33,68.02.41,12.83-12.83,18.33-22.81,22.2-32.38l15.88,9.77c-3.46,9.16-11,23.22-26.68,38.9-30.34,30.34-68.42,28.51-98.16-1.22-29.73-29.73-35.64-70.66-6.92-99.38,32.18-32.18,69.04-12.42,87.16,5.7,3.67,3.67,6.11,6.92,7.74,8.96l-69.24,69.24Zm39.71-65.37c-11.2-11.61-33.8-24.44-53.96-4.28-18.12,18.12-9.37,42.77,1.63,56.61l52.34-52.34Z"/>
        <path class="cls-2" d="m1201.2,302.72c-11.61-11.61-21.79-21.38-31.56-29.94l15.68-15.68,19.96,18.73.81-.81c-8.76-17.72-6.31-36.86,5.7-48.87,2.04-2.04,3.67-3.26,5.7-4.48l16.9,16.9c-2.24,1.43-4.28,3.05-6.72,5.5-12.63,12.63-12.01,31.16-1.02,47.04,2.04,2.85,4.48,6.11,7.54,9.16l52.54,52.54-17.72,17.72-67.81-67.81Z"/>
      </g>
      <g class="cls-1">
        <path class="cls-2" d="m232.22,194.7c4.14,2.96,9.3,7.1,15.22,13.02,7.27,7.27,10.91,14.29,11.25,20.71.42,5.83-1.86,11.84-6.93,16.91s-10.74,7.69-16.57,7.78c-8.03.25-16.49-3.97-23.67-11.16-2.2-2.2-4.14-4.31-5.41-6.43l-22.83,22.83-7.36-7.36,56.31-56.31Zm-20.12,34.83c1.18,2.03,3.04,4.23,5.5,6.68,8.88,8.88,18.6,9.98,26.46,2.11s5.83-16.49-2.28-24.6c-3.21-3.21-5.92-5.41-7.52-6.34l-22.15,22.15Z"/>
        <path class="cls-2" d="m280.24,235.28l7.44,7.44-60.03,60.03-7.44-7.44,60.03-60.03Z"/>
        <path class="cls-2" d="m262.83,337.92l4.57-5.75-.25-.25c-5.5.93-12.77-.59-18.6-6.43-8.29-8.29-6.68-18.35-.76-24.27,9.89-9.89,24.1-6.51,39.82,9.38l.85-.85c3.38-3.38,8.54-10.4.17-18.77-3.8-3.81-8.96-6.6-13.7-7.61l3.21-6.59c5.58,1.18,11.92,4.65,17.08,9.81,12.51,12.51,7.02,24.1-1.18,32.3l-15.3,15.3c-3.55,3.55-6.85,7.19-9.13,10.48l-6.76-6.76Zm19.78-21.98c-7.95-8.29-18.6-16.06-26.55-8.12-4.82,4.82-3.89,10.31-.08,14.12,5.33,5.33,12.09,5.33,16.74,3.04,1.02-.51,2.03-1.18,2.79-1.94l7.1-7.1Z"/>
        <path class="cls-2" d="m311.61,383.66c-2.96-.93-8.62-3.89-14.12-9.38-12.34-12.34-12.01-28.75.51-41.26s30.35-13.11,43.71.25c4.4,4.4,7.19,9.39,8.2,12.43l-7.44,4.06c-.76-2.79-2.62-6.51-6.68-10.57-9.38-9.38-21.39-7.52-29.93,1.02-9.47,9.47-9.22,21.39-1.1,29.51,4.23,4.23,8.12,5.92,11.16,7.1l-4.31,6.85Z"/>
        <path class="cls-2" d="m341.54,378.42c-9.89,10.23-7.61,20.8-.17,28.24,5.33,5.33,9.47,7.61,13.44,9.22l-4.06,6.59c-3.8-1.44-9.64-4.57-16.15-11.08-12.6-12.6-11.84-28.41.51-40.75s29.34-14.8,41.26-2.88c13.36,13.36,5.16,28.66-2.37,36.19-1.52,1.52-2.87,2.54-3.72,3.21l-28.75-28.75Zm27.14,16.49c4.82-4.65,10.15-14.03,1.78-22.4-7.52-7.52-17.76-3.89-23.5.68l21.73,21.73Z"/>
        <path class="cls-2" d="m420.68,375.71l7.44,7.44-25.53,25.53.17.17c3.3-.93,7.02-.93,10.57.08,3.47.93,6.93,2.71,9.72,5.5,5.5,5.5,10.91,17.67-3.21,31.79l-24.35,24.35-7.44-7.44,23.5-23.5c6.59-6.59,9.72-14.63,2.71-21.64-4.82-4.82-12.01-5.24-17.42-2.54-1.44.59-2.62,1.61-4.06,3.04l-24.69,24.69-7.44-7.44,60.03-60.03Z"/>
        <path class="cls-2" d="m465.4,498.89c-15.13,15.13-32.21,11.24-42.1,1.35-11.08-11.08-11.5-27.73,1.44-40.67,13.7-13.7,30.69-12.77,42.02-1.44s11.16,28.24-1.35,40.75Zm-32.89-32.04c-8.96,8.96-10.57,20.88-3.3,28.15,7.1,7.1,19.11,5.75,28.32-3.47,6.93-6.93,12.26-19.19,3.47-27.98-8.79-8.79-20.71-4.48-28.49,3.3Z"/>
        <path class="cls-2" d="m514.01,469.05l7.44,7.44-60.03,60.03-7.44-7.44,60.03-60.03Z"/>
        <path class="cls-2" d="m569.31,524.34l-49.46,49.46c-3.64,3.64-7.69,7.86-10.23,10.91l-6.68-6.68,6.76-7.44-.17-.17c-6.85,2.28-15.3.76-21.98-5.92-9.89-9.89-9.13-25.87,3.3-38.3,13.53-13.7,30.35-13.61,40.33-3.64,6.26,6.26,7.52,13.44,6.09,18.6l.17.17,24.43-24.43,7.44,7.44Zm-43.2,28.32c.93-.93,2.11-2.28,2.79-3.47,3.64-5.83,3.47-13.78-2.11-19.36-7.69-7.69-19.02-5.49-28.07,3.55-8.29,8.29-11.08,19.19-3.04,27.22,4.99,4.99,12.85,6.26,19.78,2.03,1.27-.76,2.37-1.69,3.55-2.88l7.1-7.1Z"/>
        <path class="cls-2" d="m544.87,581.75c-9.89,10.23-7.61,20.8-.17,28.24,5.33,5.33,9.47,7.61,13.44,9.22l-4.06,6.59c-3.8-1.44-9.64-4.57-16.15-11.08-12.6-12.6-11.84-28.41.51-40.75s29.34-14.8,41.26-2.88c13.36,13.36,5.16,28.66-2.37,36.19-1.52,1.52-2.87,2.54-3.72,3.21l-28.75-28.75Zm27.14,16.49c4.82-4.65,10.15-14.03,1.78-22.4-7.52-7.52-17.76-3.89-23.5.68l21.73,21.73Z"/>
        <path class="cls-2" d="m592.13,610.92c4.82-4.82,8.88-9.05,12.43-13.11l6.51,6.51-7.78,8.29.34.34c7.36-3.64,15.3-2.62,20.29,2.37.85.85,1.35,1.52,1.86,2.37l-7.02,7.02c-.59-.93-1.27-1.78-2.28-2.79-5.24-5.24-12.94-4.99-19.53-.42-1.18.85-2.54,1.86-3.8,3.13l-21.81,21.81-7.36-7.36,28.15-28.15Z"/>
      </g>
      <g class="cls-1">
        <path class="cls-2" d="m985.91,907.12c4.14,2.96,9.3,7.1,15.22,13.02,7.27,7.27,10.91,14.29,11.25,20.71.42,5.83-1.86,11.84-6.93,16.91-5.16,5.16-10.74,7.69-16.57,7.78-8.03.25-16.49-3.97-23.67-11.16-2.2-2.2-4.14-4.31-5.41-6.43l-22.83,22.83-7.36-7.36,56.31-56.31Zm-20.12,34.83c1.18,2.03,3.04,4.23,5.5,6.68,8.88,8.88,18.6,9.98,26.46,2.11s5.83-16.49-2.28-24.6c-3.21-3.21-5.92-5.41-7.52-6.34l-22.15,22.15Z"/>
        <path class="cls-2" d="m1033.94,947.7l7.44,7.44-60.03,60.03-7.44-7.44,60.03-60.03Z"/>
        <path class="cls-2" d="m1016.52,1050.34l4.57-5.75-.25-.25c-5.5.93-12.77-.59-18.6-6.43-8.29-8.29-6.68-18.35-.76-24.27,9.89-9.89,24.1-6.51,39.82,9.38l.85-.84c3.38-3.38,8.54-10.4.17-18.77-3.8-3.8-8.96-6.59-13.7-7.61l3.21-6.59c5.58,1.18,11.92,4.65,17.08,9.81,12.51,12.51,7.02,24.1-1.18,32.3l-15.3,15.3c-3.55,3.55-6.85,7.19-9.13,10.48l-6.76-6.76Zm19.78-21.98c-7.95-8.29-18.6-16.06-26.55-8.12-4.82,4.82-3.89,10.31-.08,14.12,5.33,5.33,12.09,5.33,16.74,3.04,1.02-.51,2.03-1.18,2.79-1.94l7.1-7.1Z"/>
        <path class="cls-2" d="m1065.3,1096.08c-2.96-.93-8.62-3.89-14.12-9.38-12.34-12.34-12.01-28.75.51-41.26,12.6-12.6,30.35-13.11,43.71.25,4.4,4.4,7.19,9.38,8.2,12.43l-7.44,4.06c-.76-2.79-2.62-6.51-6.68-10.57-9.38-9.38-21.39-7.52-29.93,1.02-9.47,9.47-9.22,21.39-1.1,29.51,4.23,4.23,8.12,5.92,11.16,7.1l-4.31,6.85Z"/>
        <path class="cls-2" d="m1095.23,1090.83c-9.89,10.23-7.61,20.8-.17,28.24,5.33,5.33,9.47,7.61,13.44,9.22l-4.06,6.59c-3.8-1.44-9.64-4.57-16.15-11.08-12.6-12.6-11.84-28.41.51-40.75,12.34-12.34,29.34-14.8,41.26-2.88,13.36,13.36,5.16,28.66-2.37,36.19-1.52,1.52-2.87,2.54-3.72,3.21l-28.75-28.75Zm27.14,16.49c4.82-4.65,10.15-14.03,1.78-22.4-7.52-7.52-17.76-3.89-23.5.68l21.73,21.73Z"/>
        <path class="cls-2" d="m1174.37,1088.13l7.44,7.44-25.53,25.53.17.17c3.3-.93,7.02-.93,10.57.08,3.47.93,6.93,2.71,9.72,5.5,5.5,5.5,10.91,17.67-3.21,31.79l-24.35,24.35-7.44-7.44,23.5-23.5c6.59-6.59,9.72-14.63,2.71-21.64-4.82-4.82-12.01-5.24-17.42-2.54-1.44.59-2.62,1.61-4.06,3.04l-24.69,24.69-7.44-7.44,60.03-60.03Z"/>
        <path class="cls-2" d="m1219.09,1211.31c-15.13,15.13-32.21,11.24-42.1,1.35-11.08-11.08-11.5-27.73,1.44-40.67,13.7-13.7,30.69-12.77,42.02-1.44,11.75,11.75,11.16,28.24-1.35,40.75Zm-32.89-32.04c-8.96,8.96-10.57,20.88-3.3,28.15,7.1,7.1,19.11,5.75,28.32-3.47,6.93-6.93,12.26-19.19,3.47-27.98-8.79-8.79-20.71-4.48-28.49,3.3Z"/>
        <path class="cls-2" d="m1267.71,1181.47l7.44,7.44-60.03,60.03-7.44-7.44,60.03-60.03Z"/>
        <path class="cls-2" d="m1323,1236.76l-49.46,49.46c-3.64,3.64-7.69,7.86-10.23,10.91l-6.68-6.68,6.76-7.44-.17-.17c-6.85,2.28-15.3.76-21.98-5.92-9.89-9.89-9.13-25.87,3.3-38.3,13.53-13.7,30.35-13.61,40.33-3.64,6.26,6.26,7.52,13.44,6.09,18.6l.17.17,24.43-24.43,7.44,7.44Zm-43.2,28.32c.93-.93,2.11-2.28,2.79-3.47,3.64-5.83,3.47-13.78-2.11-19.36-7.69-7.69-19.02-5.49-28.07,3.55-8.29,8.29-11.08,19.19-3.04,27.22,4.99,4.99,12.85,6.26,19.78,2.03,1.27-.76,2.37-1.69,3.55-2.88l7.1-7.1Z"/>
        <path class="cls-2" d="m1298.56,1294.17c-9.89,10.23-7.61,20.8-.17,28.24,5.33,5.33,9.47,7.61,13.44,9.22l-4.06,6.59c-3.8-1.44-9.64-4.57-16.15-11.08-12.6-12.6-11.84-28.41.51-40.75,12.34-12.34,29.34-14.8,41.26-2.88,13.36,13.36,5.16,28.66-2.37,36.19-1.52,1.52-2.87,2.54-3.72,3.21l-28.75-28.75Zm27.14,16.49c4.82-4.65,10.15-14.03,1.78-22.4-7.52-7.53-17.76-3.89-23.5.68l21.73,21.73Z"/>
        <path class="cls-2" d="m1345.83,1323.33c4.82-4.82,8.88-9.05,12.43-13.11l6.51,6.51-7.78,8.29.34.34c7.36-3.63,15.3-2.62,20.29,2.37.85.84,1.35,1.52,1.86,2.37l-7.02,7.02c-.59-.93-1.27-1.78-2.28-2.79-5.24-5.24-12.94-4.99-19.53-.42-1.18.84-2.54,1.86-3.8,3.13l-21.81,21.81-7.36-7.36,28.15-28.15Z"/>
      </g>
    </g>
  </g>
</svg>