<?xml version="1.0" encoding="UTF-8"?>
<svg id="Layer_2" data-name="Layer 2" xmlns="http://www.w3.org/2000/svg" viewBox="0 0 1248.46 1651.15">
  <defs>
    <style>
      .cls-1 {
        fill: #f9ab43;
      }

      .cls-1, .cls-2 {
        stroke: #231f20;
        stroke-miterlimit: 10;
        stroke-width: 10px;
      }

      .cls-2 {
        fill: #f48023;
      }
    </style>
  </defs>
  <g id="Layer_1-2" data-name="Layer 1">
    <g>
      <path class="cls-1" d="m410.46,203.44c-1.67,172.74-3.33,345.48-5,518.22-1.2,8.32-6.52,38.17-33,62-24.13,21.72-51.14,25.23-60,26-102.17,1.63-204.33,3.26-306.5,4.89v-484.39c141.62,8.71,281.68-33.63,394.76-119.34l9.74-7.38Z"/>
      <path class="cls-1" d="m410.46,1025.72v497.72C199.38,1387.11,54.57,1169.09,10.76,921.66l-4.8-27.11h273.33c72.44,0,131.17,58.72,131.17,131.17Z"/>
      <path class="cls-2" d="m1243.46,334.66v560c-48.25,332.81-280,577-583.32,738.44l-31.68,12.56-136-71v-548.93c0-72.44,58.74-131.17,131.18-131.15l330.82.08-133,135,60,63,233-238-237-233-58,57,129,136-324.88-.08c-72.42-.02-131.12-58.73-131.12-131.15V156.77L628.46,7.88c143.33,195.25,371.86,321.95,615,326.78Z"/>
    </g>
  </g>
</svg>